<svg width="18" height="18" viewBox="0 0 18 18" fill="none" xmlns="http://www.w3.org/2000/svg">
<path d="M17.7186 0.730393L17.2657 0.277453C17.0868 0.0985497 16.8489 8.58307e-06 16.5959 8.58307e-06C16.3429 8.58307e-06 16.1049 0.0985497 15.926 0.277453L14.8012 1.40232C14.6222 1.58126 14.5237 1.8191 14.5237 2.07218C14.5237 2.09052 14.5244 2.10874 14.5254 2.12692C14.5227 2.12946 14.5198 2.13175 14.5171 2.13441L10.4684 6.18319C9.02194 5.28598 7.22341 5.41474 6.11632 6.52186C5.9735 6.66461 5.84423 6.82181 5.73206 6.98895C5.25369 7.70178 4.45994 8.1975 3.49694 8.38472C2.6399 8.55135 1.86785 8.95846 1.26428 9.56207C-0.535718 11.3621 -0.390243 14.4364 1.58858 16.4153C2.6395 17.4662 3.99923 18.0001 5.31314 18C6.4733 18 7.59777 17.5837 8.44186 16.7396C9.04543 16.136 9.45254 15.364 9.61917 14.507C9.80647 13.544 10.3021 12.7503 11.015 12.2719C11.182 12.1599 11.3392 12.0305 11.482 11.8877C12.5971 10.7726 12.721 8.97557 11.8146 7.52565L15.8614 3.47877C15.864 3.4762 15.8663 3.47335 15.8687 3.47069C15.887 3.47172 15.9054 3.47244 15.9239 3.47244C16.177 3.47244 16.4149 3.37389 16.5938 3.19499L17.7186 2.07013C17.8975 1.89118 17.9961 1.65335 17.9961 1.40026C17.9961 1.14721 17.8975 0.909336 17.7186 0.730393ZM14.8035 2.74431L15.2515 3.19242L9.63133 8.81263C9.57069 8.72744 9.50265 8.64593 9.42632 8.56956C9.35044 8.49372 9.26905 8.42552 9.18342 8.3644L14.8035 2.74431ZM8.97818 9.01771C9.47239 9.51188 9.47239 10.3159 8.97818 10.8101C8.73879 11.0495 8.42056 11.1813 8.082 11.1813C7.74344 11.1813 7.4252 11.0495 7.18582 10.8101C6.69161 10.3159 6.69161 9.51188 7.18582 9.01771C7.4252 8.77829 7.74344 8.64648 8.082 8.64648C8.42056 8.64648 8.73879 8.77829 8.97818 9.01771ZM11.034 11.4395C10.92 11.5534 10.7949 11.6564 10.6619 11.7456C9.80801 12.3186 9.21685 13.2563 8.99715 14.3859C8.85468 15.1186 8.50777 15.7775 7.99376 16.2915C6.44082 17.8445 3.76837 17.6989 2.03673 15.9672C0.304931 14.2354 0.159456 11.5631 1.71243 10.0101C2.22636 9.49612 2.88526 9.14917 3.61794 9.0067C4.74756 8.78708 5.68525 8.19584 6.25823 7.34204C6.34755 7.20892 6.45052 7.08376 6.56439 6.96993C7.43027 6.10398 8.83306 5.98654 10.0058 6.64564L8.57427 8.07725C8.4156 8.03499 8.25052 8.01274 8.08196 8.01274C7.57416 8.01274 7.09675 8.21049 6.73767 8.56956C5.99644 9.31084 5.99644 10.5169 6.73767 11.2582C7.09675 11.6172 7.57416 11.815 8.08196 11.815C8.58976 11.815 9.06717 11.6173 9.42625 11.2582C9.92271 10.7617 10.0861 10.0568 9.91753 9.42261L11.3526 7.98755C12.0204 9.1635 11.9068 10.5667 11.034 11.4395ZM17.2705 1.62198L16.1457 2.74684C16.0864 2.80606 16.0077 2.83869 15.9239 2.83869C15.8402 2.83869 15.7614 2.80606 15.7022 2.74688L15.2492 2.29386C15.19 2.23465 15.1574 2.15591 15.1574 2.07215C15.1574 1.98838 15.19 1.9096 15.2492 1.85039L16.374 0.725522C16.4333 0.66631 16.512 0.633674 16.5958 0.633674C16.6796 0.633674 16.7583 0.66631 16.8175 0.725522L17.2705 1.1785C17.3928 1.30081 17.3928 1.49971 17.2705 1.62198Z" fill="white"/>
<path d="M4.87236 12.5295C4.74867 12.4058 4.54806 12.4058 4.42425 12.5295C4.30052 12.6532 4.30052 12.8538 4.42425 12.9776L6.06555 14.6189L5.84153 14.8429L3.15296 12.1543L3.37698 11.9303L3.58043 12.1338C3.70421 12.2574 3.90477 12.2574 4.02854 12.1338C4.15227 12.01 4.15227 11.8094 4.02854 11.6856L3.82508 11.4822C3.70559 11.3627 3.54649 11.2969 3.37702 11.2969C3.2075 11.2969 3.04836 11.3627 2.92891 11.4822L2.70485 11.7062C2.5854 11.8257 2.51961 11.9848 2.51961 12.1543C2.51961 12.3238 2.5854 12.483 2.70485 12.6024L5.39343 15.291C5.51292 15.4104 5.67202 15.4762 5.84153 15.4762C6.01105 15.4762 6.17019 15.4104 6.28964 15.291L6.51366 15.067C6.63311 14.9475 6.69886 14.7884 6.69886 14.6189C6.69886 14.4493 6.63307 14.2902 6.51366 14.1708L4.87236 12.5295Z" fill="white"/>
</svg>
