<svg width="18" height="18" viewBox="0 0 18 18" fill="none" xmlns="http://www.w3.org/2000/svg">
<path d="M2 18C1.45 18 0.979167 17.8042 0.5875 17.4125C0.195833 17.0208 0 16.55 0 16V2C0 1.45 0.195833 0.979167 0.5875 0.5875C0.979167 0.195833 1.45 0 2 0H16C16.55 0 17.0208 0.195833 17.4125 0.5875C17.8042 0.979167 18 1.45 18 2V16C18 16.55 17.8042 17.0208 17.4125 17.4125C17.0208 17.8042 16.55 18 16 18H2ZM2 16H5.25V11.5H5C4.71667 11.5 4.47917 11.4042 4.2875 11.2125C4.09583 11.0208 4 10.7833 4 10.5V2H2V16ZM12.75 16H16V2H14V10.5C14 10.7833 13.9042 11.0208 13.7125 11.2125C13.5208 11.4042 13.2833 11.5 13 11.5H12.75V16ZM6.75 16H11.25V11.5H11C10.7167 11.5 10.4792 11.4042 10.2875 11.2125C10.0958 11.0208 10 10.7833 10 10.5V2H8V10.5C8 10.7833 7.90417 11.0208 7.7125 11.2125C7.52083 11.4042 7.28333 11.5 7 11.5H6.75V16Z" fill="white"/>
</svg>
