<svg width="22" height="14" viewBox="0 0 22 14" fill="none" xmlns="http://www.w3.org/2000/svg">
<path d="M1 8.2039L1.01317 8.26321L1.02633 8.3224L1.0395 8.38144L1.05267 8.44035L1.06583 8.49911L1.079 8.55772L1.09217 8.61617L1.10533 8.67445L1.1185 8.73256L1.13167 8.7905L1.14483 8.84825L1.158 8.90581L1.17117 8.96318L1.18433 9.02035L1.1975 9.07732L1.21066 9.13407L1.22383 9.1906L1.237 9.24691L1.25016 9.30299L1.26333 9.35884L1.2765 9.41444L1.28966 9.4698L1.30283 9.52491L1.316 9.57976L1.32916 9.63435L1.34233 9.68866L1.3555 9.74271L1.36866 9.79647L1.38183 9.84995L1.395 9.90313L1.40816 9.95602L1.42133 10.0086L1.4345 10.0609L1.44766 10.1129L1.46083 10.1645L1.474 10.2158L1.48716 10.2668L1.50033 10.3175L1.5135 10.3678L1.52666 10.4178L1.53983 10.4675L1.553 10.5168L1.56616 10.5657L1.57933 10.6142L1.5925 10.6624L1.60566 10.7103L1.61883 10.7577L1.63199 10.8047L1.64516 10.8514L1.65833 10.8977L1.67149 10.9436L1.68466 10.989L1.69783 11.0341L1.71099 11.0788L1.72416 11.123L1.73733 11.1668L1.75049 11.2102L1.76366 11.2532L1.77683 11.2957L1.78999 11.3378L1.80316 11.3795L1.81633 11.4207L1.82949 11.4614L1.84266 11.5017L1.85583 11.5416L1.86899 11.5809L1.88216 11.6198L1.89533 11.6583L1.90849 11.6962L1.92166 11.7337L1.93483 11.7707L1.94799 11.8072L1.96116 11.8432L1.97433 11.8788L1.98749 11.9138L2.00066 11.9483L2.01382 11.9824L2.02699 12.0159L2.04016 12.0489L2.05332 12.0814L2.06649 12.1133L2.07966 12.1448L2.09282 12.1757L2.10599 12.2061L2.11916 12.236L2.13232 12.2653L2.14549 12.2941L2.15866 12.3223L2.17182 12.35L2.18499 12.3772L2.19816 12.4038L2.21132 12.4299L2.22449 12.4554L2.23766 12.4803L2.25082 12.5047L2.26399 12.5286L2.27716 12.5518L2.29032 12.5745L2.30349 12.5967L2.31666 12.6182L2.32982 12.6392L2.34299 12.6596L2.35616 12.6795L2.36932 12.6987L2.38249 12.7174L2.39566 12.7355L2.40882 12.753L2.42199 12.7699L2.43515 12.7862L2.44832 12.802L2.46149 12.8171L2.47465 12.8317L2.48782 12.8456L2.50099 12.859L2.51415 12.8718L2.52732 12.8839L2.54049 12.8955L2.55365 12.9065L2.56682 12.9168L2.57999 12.9266L2.59315 12.9357L2.60632 12.9443L2.61949 12.9522L2.63265 12.9596L2.64582 12.9663L2.65899 12.9724L2.67215 12.9779L2.68532 12.9828L2.69849 12.9871L2.71165 12.9908L2.72482 12.9938L2.73799 12.9963L2.75115 12.9981L2.76432 12.9994L2.77749 13L2.79065 13L2.80382 12.9994L2.81698 12.9982L2.83015 12.9963L2.84332 12.9939L2.85648 12.9908L2.86965 12.9872L2.88282 12.9829L2.89598 12.978L2.90915 12.9725L2.92232 12.9664L2.93548 12.9597L2.94865 12.9524L2.96182 12.9444L2.97498 12.9359L2.98815 12.9267L3.00132 12.917L3.01448 12.9066L3.02765 12.8957L3.04082 12.8841L3.05398 12.872L3.06715 12.8592L3.08032 12.8459L3.09348 12.8319L3.10665 12.8174L3.11982 12.8022L3.13298 12.7865L3.14615 12.7702L3.15932 12.7533L3.17248 12.7358L3.18565 12.7177L3.19882 12.6991L3.21198 12.6798L3.22515 12.66L3.23831 12.6396L3.25148 12.6186L3.26465 12.597L3.27781 12.5749L3.29098 12.5522L3.30415 12.529L3.31731 12.5052L3.33048 12.4808L3.34365 12.4558L3.35681 12.4303L3.36998 12.4043L3.38315 12.3777L3.39631 12.3505L3.40948 12.3228L3.42265 12.2946L3.43581 12.2658L3.44898 12.2365L3.46215 12.2066L3.47531 12.1762L3.48848 12.1453L3.50165 12.1139L3.51481 12.0819L3.52798 12.0494L3.54115 12.0165L3.55431 11.9829L3.56748 11.9489L3.58065 11.9144L3.59381 11.8794L3.60698 11.8439L3.62014 11.8079L3.63331 11.7714L3.64648 11.7344L3.65964 11.6969L3.67281 11.6589L3.68598 11.6205L3.69914 11.5816L3.71231 11.5423L3.72548 11.5024L3.73864 11.4621L3.75181 11.4214L3.76498 11.3802L3.77814 11.3386L3.79131 11.2965L3.80448 11.2539L3.81764 11.211L3.83081 11.1676L3.84398 11.1238L3.85714 11.0796L3.87031 11.0349L3.88348 10.9898L3.89664 10.9444L3.90981 10.8985L3.92298 10.8522L3.93614 10.8056L3.94931 10.7585L3.96248 10.7111L3.97564 10.6633L3.98881 10.6151L4.00198 10.5665L4.01514 10.5176L4.02831 10.4683L4.04147 10.4187L4.05464 10.3687L4.06781 10.3184L4.08097 10.2677L4.09414 10.2168L4.10731 10.1654L4.12047 10.1138L4.13364 10.0618L4.14681 10.0095L4.15997 9.95696L4.17314 9.90407L4.18631 9.85089L4.19947 9.79742L4.21264 9.74366L4.22581 9.68962L4.23897 9.63531L4.25214 9.58073L4.26531 9.52588L4.27847 9.47078L4.29164 9.41542L4.30481 9.35982L4.31797 9.30398L4.33114 9.2479L4.34431 9.1916L4.35747 9.13507L4.37064 9.07832L4.38381 9.02136L4.39697 8.9642L4.41014 8.90683L4.4233 8.84927L4.43647 8.79152L4.44964 8.73359L4.4628 8.67548L4.47597 8.6172L4.48914 8.55875L4.5023 8.50015L4.51547 8.44139L4.52864 8.38249L4.5418 8.32344L4.55497 8.26426L4.56814 8.20495L4.5813 8.14552L4.59447 8.08597L4.60764 8.02631L4.6208 7.96654L4.63397 7.90668L4.64714 7.84673L4.6603 7.78668L4.67347 7.72656L4.68664 7.66636L4.6998 7.6061L4.71297 7.54577L4.72614 7.48539L4.7393 7.42496L4.75247 7.36448L4.76564 7.30397L4.7788 7.24343L4.79197 7.18286L4.80513 7.12227L4.8183 7.06167L4.83147 7.00107L4.84463 6.94046L4.8578 6.87986L4.87097 6.81928L4.88413 6.75871L4.8973 6.69816L4.91047 6.63765L4.92363 6.57717L4.9368 6.51674L4.94997 6.45635L4.96313 6.39603L4.9763 6.33576L4.98947 6.27556L5.00263 6.21544L5.0158 6.15539L5.02897 6.09543L5.04213 6.03556L5.0553 5.9758L5.06847 5.91613L5.08163 5.85658L5.0948 5.79714L5.10797 5.73783L5.12113 5.67864L5.1343 5.61959L5.14747 5.56068L5.16063 5.50192L5.1738 5.44331L5.18697 5.38486L5.20013 5.32657L5.2133 5.26846L5.22646 5.21052L5.23963 5.15276L5.2528 5.0952L5.26596 5.03782L5.27913 4.98065L5.2923 4.92368L5.30546 4.86693L5.31863 4.81039L5.3318 4.75408L5.34496 4.69799L5.35813 4.64214L5.3713 4.58653L5.38446 4.53117L5.39763 4.47606L5.4108 4.4212L5.42396 4.36661L5.43713 4.31229L5.4503 4.25824L5.46346 4.20447L5.47663 4.15099L5.4898 4.0978L5.50296 4.0449L5.51613 3.99231L5.5293 3.94002L5.54246 3.88804L5.55563 3.83639L5.5688 3.78505L5.58196 3.73404L5.59513 3.68337L5.60829 3.63303L5.62146 3.58304L5.63463 3.5334L5.64779 3.48411L5.66096 3.43518L5.67413 3.38661L5.68729 3.33841L5.70046 3.29058L5.71363 3.24314L5.72679 3.19608L5.73996 3.1494L5.75313 3.10312L5.76629 3.05723L5.77946 3.01175L5.79263 2.96668L5.80579 2.92201L5.81896 2.87776L5.83213 2.83394L5.84529 2.79053L5.85846 2.74756L5.87163 2.70502L5.88479 2.66292L5.89796 2.62126L5.91113 2.58005L5.92429 2.53929L5.93746 2.49899L5.95063 2.45914L5.96379 2.41976L5.97696 2.38084L5.99013 2.3424L6.00329 2.30443L6.01646 2.26694L6.02962 2.22993L6.04279 2.19341L6.05596 2.15738L6.06912 2.12184L6.08229 2.08681L6.09546 2.05227L6.10862 2.01824L6.12179 1.98471L6.13496 1.9517L6.14812 1.91921L6.16129 1.88723L6.17446 1.85577L6.18762 1.82484L6.20079 1.79443L6.21396 1.76456L6.22712 1.73522L6.24029 1.70642L6.25346 1.67816L6.26662 1.65044L6.27979 1.62327L6.29296 1.59664L6.30612 1.57057L6.31929 1.54505L6.33246 1.52009L6.34562 1.49569L6.35879 1.47185L6.37196 1.44857L6.38512 1.42586L6.39829 1.40372L6.41145 1.38214L6.42462 1.36115L6.43779 1.34072L6.45095 1.32088L6.46412 1.30161L6.47729 1.28293L6.49045 1.26483L6.50362 1.24731L6.51679 1.23038L6.52995 1.21404L6.54312 1.19829L6.55629 1.18313L6.56945 1.16857L6.58262 1.1546L6.59579 1.14122L6.60895 1.12845L6.62212 1.11627L6.63529 1.1047L6.64845 1.09372L6.66162 1.08335L6.67479 1.07358L6.68795 1.06442L6.70112 1.05586L6.71429 1.04791L6.72745 1.04056L6.74062 1.03383L6.75379 1.0277L6.76695 1.02218L6.78012 1.01727L6.79329 1.01297L6.80645 1.00929L6.81962 1.00621L6.83278 1.00375L6.84595 1.00189L6.85912 1.00065L6.87228 1.00003L6.88545 1.00001L6.89862 1.00061L6.91178 1.00181L6.92495 1.00363L6.93812 1.00607L6.95128 1.00911L6.96445 1.01276L6.97762 1.01703L6.99078 1.02191L7.00395 1.02739L7.01712 1.03349L7.03028 1.04019L7.04345 1.0475L7.05662 1.05542L7.06978 1.06395L7.08295 1.07308L7.09612 1.08282L7.10928 1.09316L7.12245 1.1041L7.13562 1.11564L7.14878 1.12779L7.16195 1.14053L7.17512 1.15387L7.18828 1.16781L7.20145 1.18234L7.21461 1.19747L7.22778 1.21319L7.24095 1.2295L7.25411 1.2464L7.26728 1.26388L7.28045 1.28195L7.29361 1.30061L7.30678 1.31984L7.31995 1.33966L7.33311 1.36005L7.34628 1.38102L7.35945 1.40256L7.37261 1.42467L7.38578 1.44735L7.39895 1.4706L7.41211 1.49441L7.42528 1.51878L7.43845 1.54372L7.45161 1.56921L7.46478 1.59525L7.47795 1.62184L7.49111 1.64899L7.50428 1.67668L7.51745 1.70491L7.53061 1.73368L7.54378 1.76299L7.55695 1.79284L7.57011 1.82321L7.58328 1.85412L7.59645 1.88555L7.60961 1.9175L7.62278 1.94997L7.63594 1.98295L7.64911 2.01645L7.66228 2.05045L7.67544 2.08496L7.68861 2.11998L7.70178 2.15548L7.71494 2.19149L7.72811 2.22798L7.74128 2.26496L7.75444 2.30243L7.76761 2.34037L7.78078 2.37879L7.79394 2.41768L7.80711 2.45704L7.82028 2.49686L7.83344 2.53714L7.84661 2.57788L7.85978 2.61907L7.87294 2.6607L7.88611 2.70278L7.89928 2.74529L7.91244 2.78824L7.92561 2.83162L7.93878 2.87543L7.95194 2.91966L7.96511 2.9643L7.97828 3.00935L7.99144 3.05481L8.00461 3.10067L8.01777 3.14694L8.03094 3.19359L8.04411 3.24063L8.05727 3.28806L8.07044 3.33587L8.08361 3.38404L8.09677 3.43259L8.10994 3.4815L8.12311 3.53078L8.13627 3.5804L8.14944 3.63037L8.16261 3.68069L8.17577 3.73135L8.18894 3.78234L8.20211 3.83365L8.21527 3.8853L8.22844 3.93726L8.24161 3.98953L8.25477 4.04211L8.26794 4.09499L8.28111 4.14816L8.29427 4.20163L8.30744 4.25538L8.32061 4.30942L8.33377 4.36372L8.34694 4.4183L8.36011 4.47314L8.37327 4.52824L8.38644 4.58359L8.39961 4.63919L8.41277 4.69502L8.42594 4.7511L8.4391 4.8074L8.45227 4.86392L8.46544 4.92067L8.4786 4.97762L8.49177 5.03479L8.50494 5.09215L8.5181 5.14971L8.53127 5.20745L8.54444 5.26538L8.5576 5.32349L8.57077 5.38177L8.58394 5.44021L8.5971 5.49881L8.61027 5.55756L8.62344 5.61647L8.6366 5.67551L8.64977 5.73469L8.66294 5.79399L8.6761 5.85342L8.68927 5.91297L8.70244 5.97263L8.7156 6.03239L8.72877 6.09225L8.74194 6.15221L8.7551 6.21225L8.76827 6.27237L8.78144 6.33257L8.7946 6.39283L8.80777 6.45316L8.82093 6.51354L8.8341 6.57397L8.84727 6.63444L8.86043 6.69495L8.8736 6.7555L8.88677 6.81606L8.89993 6.87665L8.9131 6.93725L8.92627 6.99785L8.93943 7.05846L8.9526 7.11906L8.96577 7.17965L8.97893 7.24022L8.9921 7.30076L9.00527 7.36128L9.01843 7.42175L9.0316 7.48219L9.04477 7.54257L9.05793 7.6029L9.0711 7.66317L9.08427 7.72337L9.09743 7.7835L9.1106 7.84354L9.12377 7.9035L9.13693 7.96337L9.1501 8.02314L9.16327 8.08281L9.17643 8.14236L9.1896 8.2018L9.20277 8.26112L9.21593 8.32031L9.2291 8.37936L9.24226 8.43827L9.25543 8.49704L9.2686 8.55565L9.28176 8.6141L9.29493 8.67239L9.3081 8.73051L9.32126 8.78845L9.33443 8.84621L9.3476 8.90378L9.36076 8.96116L9.37393 9.01834L9.3871 9.07531L9.40026 9.13207L9.41343 9.18861L9.4266 9.24493L9.43976 9.30102L9.45293 9.35687L9.4661 9.41248L9.47926 9.46785L9.49243 9.52297L9.5056 9.57783L9.51876 9.63242L9.53193 9.68675L9.5451 9.7408L9.55826 9.79457L9.57143 9.84806L9.5846 9.90126L9.59776 9.95416L9.61093 10.0068L9.62409 10.0591L9.63726 10.111L9.65043 10.1627L9.66359 10.214L9.67676 10.2651L9.68993 10.3157L9.70309 10.3661L9.71626 10.4161L9.72943 10.4657L9.74259 10.515L9.75576 10.564L9.76893 10.6125L9.78209 10.6607L9.79526 10.7086L9.80843 10.756L9.82159 10.8031L9.83476 10.8498L9.84793 10.8961L9.86109 10.942L9.87426 10.9874L9.88743 11.0325L9.90059 11.0772L9.91376 11.1215L9.92693 11.1653L9.94009 11.2087L9.95326 11.2517L9.96643 11.2942L9.97959 11.3363L9.99276 11.378L10.0059 11.4192L10.0191 11.46L10.0323 11.5003L10.0454 11.5402L10.0586 11.5795L10.0718 11.6185L10.0849 11.6569L10.0981 11.6949L10.1113 11.7324L10.1244 11.7694L10.1376 11.8059L10.1508 11.842L10.1639 11.8775L10.1771 11.9126L10.1903 11.9471L10.2034 11.9812L10.2166 12.0147L10.2298 12.0477L10.2429 12.0802L10.2561 12.1122L10.2693 12.1437L10.2824 12.1746L10.2956 12.205L10.3088 12.2349L10.3219 12.2643L10.3351 12.2931L10.3483 12.3213L10.3614 12.3491L10.3746 12.3762L10.3878 12.4029L10.4009 12.429L10.4141 12.4545L10.4273 12.4795L10.4404 12.5039L10.4536 12.5277L10.4668 12.551L10.4799 12.5737L10.4931 12.5959L10.5063 12.6175L10.5194 12.6385L10.5326 12.6589L10.5458 12.6788L10.5589 12.698L10.5721 12.7167L10.5853 12.7349L10.5984 12.7524L10.6116 12.7693L10.6248 12.7857L10.6379 12.8014L10.6511 12.8166L10.6643 12.8312L10.6774 12.8452L10.6906 12.8585L10.7038 12.8713L10.7169 12.8835L10.7301 12.8951L10.7433 12.9061L10.7564 12.9165L10.7696 12.9262L10.7828 12.9354L10.7959 12.944L10.8091 12.952L10.8223 12.9593L10.8354 12.9661L10.8486 12.9722L10.8618 12.9777L10.8749 12.9826L10.8881 12.9869L10.9013 12.9906L10.9144 12.9937L10.9276 12.9962L10.9408 12.9981L10.9539 12.9993L10.9671 13L10.9803 13L10.9934 12.9994L11.0066 12.9982L11.0197 12.9964L11.0329 12.994L11.0461 12.9909L11.0592 12.9873L11.0724 12.983L11.0856 12.9782L11.0987 12.9727L11.1119 12.9666L11.1251 12.9599L11.1382 12.9526L11.1514 12.9447L11.1646 12.9362L11.1777 12.9271L11.1909 12.9174L11.2041 12.907L11.2172 12.8961L11.2304 12.8846L11.2436 12.8724L11.2567 12.8597L11.2699 12.8464L11.2831 12.8324L11.2962 12.8179L11.3094 12.8028L11.3226 12.7871L11.3357 12.7708L11.3489 12.7539L11.3621 12.7364L11.3752 12.7184L11.3884 12.6997L11.4016 12.6805L11.4147 12.6607L11.4279 12.6403L11.4411 12.6194L11.4542 12.5978L11.4674 12.5757L11.4806 12.5531L11.4937 12.5298L11.5069 12.506L11.5201 12.4816L11.5332 12.4567L11.5464 12.4312L11.5596 12.4052L11.5727 12.3786L11.5859 12.3515L11.5991 12.3238L11.6122 12.2956L11.6254 12.2668L11.6386 12.2375L11.6517 12.2077L11.6649 12.1773L11.6781 12.1464L11.6912 12.115L11.7044 12.0831L11.7176 12.0506L11.7307 12.0176L11.7439 11.9841L11.7571 11.9501L11.7702 11.9156L11.7834 11.8806L11.7966 11.8451L11.8097 11.8091L11.8229 11.7727L11.8361 11.7357L11.8492 11.6982L11.8624 11.6603L11.8756 11.6219L11.8887 11.583L11.9019 11.5437L11.9151 11.5038L11.9282 11.4636L11.9414 11.4228L11.9546 11.3817L11.9677 11.34L11.9809 11.298L11.9941 11.2555L12.0072 11.2125L12.0204 11.1691L12.0336 11.1253L12.0467 11.0811L12.0599 11.0365L12.0731 10.9914L12.0862 10.946L12.0994 10.9001L12.1126 10.8539L12.1257 10.8072L12.1389 10.7602L12.1521 10.7128L12.1652 10.665L12.1784 10.6168L12.1916 10.5683L12.2047 10.5194L12.2179 10.4701L12.2311 10.4205L12.2442 10.3705L12.2574 10.3202L12.2706 10.2695L12.2837 10.2186L12.2969 10.1672L12.3101 10.1156L12.3232 10.0637L12.3364 10.0114L12.3496 9.95882L12.3627 9.90595L12.3759 9.85277L12.3891 9.79931L12.4022 9.74556L12.4154 9.69154L12.4286 9.63723L12.4417 9.58266L12.4549 9.52782L12.4681 9.47273L12.4812 9.41739L12.4944 9.36179L12.5076 9.30596L12.5207 9.24989L12.5339 9.19359L12.5471 9.13707L12.5602 9.08033L12.5734 9.02338L12.5866 8.96622L12.5997 8.90886L12.6129 8.85131L12.6261 8.79356L12.6392 8.73564L12.6524 8.67753L12.6656 8.61926L12.6787 8.56082L12.6919 8.50222L12.7051 8.44347L12.7182 8.38457L12.7314 8.32553L12.7446 8.26635L12.7577 8.20705L12.7709 8.14762L12.7841 8.08808L12.7972 8.02842L12.8104 7.96866L12.8236 7.9088L12.8367 7.84885L12.8499 7.78881L12.8631 7.72869L12.8762 7.66849L12.8894 7.60823L12.9026 7.54791L12.9157 7.48753L12.9289 7.4271L12.9421 7.36662L12.9552 7.30611L12.9684 7.24557L12.9816 7.185L12.9947 7.12441L13.0079 7.06382L13.0211 7.00321L13.0342 6.9426L13.0474 6.882L13.0606 6.82142L13.0737 6.76085L13.0869 6.7003L13.1001 6.63979L13.1132 6.57931L13.1264 6.51887L13.1396 6.45849L13.1527 6.39816L13.1659 6.33789L13.1791 6.27769L13.1922 6.21756L13.2054 6.15751L13.2186 6.09755L13.2317 6.03768L13.2449 5.97791L13.2581 5.91824L13.2712 5.85868L13.2844 5.79924L13.2976 5.73992L13.3107 5.68073L13.3239 5.62168L13.3371 5.56276L13.3502 5.50399L13.3634 5.44538L13.3766 5.38692L13.3897 5.32863L13.4029 5.27051L13.4161 5.21256L13.4292 5.1548L13.4424 5.09723L13.4556 5.03985L13.4687 4.98267L13.4819 4.92569L13.4951 4.86893L13.5082 4.81238L13.5214 4.75606L13.5346 4.69997L13.5477 4.64411L13.5609 4.58849L13.5741 4.53312L13.5872 4.478L13.6004 4.42314L13.6136 4.36854L13.6267 4.3142L13.6399 4.26015L13.6531 4.20637L13.6662 4.15287L13.6794 4.09967L13.6926 4.04677L13.7057 3.99416L13.7189 3.94186L13.7321 3.88988L13.7452 3.83821L13.7584 3.78686L13.7716 3.73584L13.7847 3.68515L13.7979 3.63481L13.8111 3.5848L13.8242 3.53515L13.8374 3.48584L13.8506 3.4369L13.8637 3.38832L13.8769 3.34011L13.8901 3.29227L13.9032 3.24481L13.9164 3.19773L13.9296 3.15104L13.9427 3.10475L13.9559 3.05885L13.9691 3.01335L13.9822 2.96826L13.9954 2.92358L14.0086 2.87932L14.0217 2.83548L14.0349 2.79206L14.0481 2.74907L14.0612 2.70652L14.0744 2.6644L14.0876 2.62273L14.1007 2.5815L14.1139 2.54072L14.1271 2.5004L14.1402 2.46054L14.1534 2.42114L14.1666 2.38221L14.1797 2.34375L14.1929 2.30576L14.2061 2.26826L14.2192 2.23123L14.2324 2.19469L14.2456 2.15865L14.2587 2.12309L14.2719 2.08804L14.2851 2.05348L14.2982 2.01943L14.3114 1.98589L14.3246 1.95286L14.3377 1.92035L14.3509 1.88835L14.3641 1.85687L14.3772 1.82592L14.3904 1.7955L14.4036 1.76561L14.4167 1.73625L14.4299 1.70743L14.4431 1.67915L14.4562 1.65141L14.4694 1.62422L14.4826 1.59758L14.4957 1.57148L14.5089 1.54595L14.5221 1.52096L14.5352 1.49654L14.5484 1.47268L14.5616 1.44938L14.5747 1.42665L14.5879 1.40449L14.6011 1.3829L14.6142 1.36188L14.6274 1.34144L14.6406 1.32157L14.6537 1.30228L14.6669 1.28358L14.6801 1.26546L14.6932 1.24792L14.7064 1.23097L14.7196 1.21461L14.7327 1.19884L14.7459 1.18366L14.7591 1.16907L14.7722 1.15508L14.7854 1.14169L14.7986 1.12889L14.8117 1.11669L14.8249 1.10509L14.8381 1.0941L14.8512 1.08371L14.8644 1.07392L14.8776 1.06473L14.8907 1.05615L14.9039 1.04818L14.9171 1.04081L14.9302 1.03405L14.9434 1.02791L14.9566 1.02237L14.9697 1.01744L14.9829 1.01312L14.9961 1.00941L15.0092 1.00631L15.0224 1.00382L15.0355 1.00195L15.0487 1.00069L15.0619 1.00004L15.075 1L15.0882 1.00057L15.1014 1.00176L15.1145 1.00356L15.1277 1.00597L15.1409 1.00899L15.154 1.01262L15.1672 1.01687L15.1804 1.02172L15.1935 1.02719L15.2067 1.03326L15.2199 1.03994L15.233 1.04723L15.2462 1.05513L15.2594 1.06364L15.2725 1.07275L15.2857 1.08246L15.2989 1.09278L15.312 1.1037L15.3252 1.11523L15.3384 1.12735L15.3515 1.14007L15.3647 1.15339L15.3779 1.16731L15.391 1.18182L15.4042 1.19693L15.4174 1.21262L15.4305 1.22891L15.4437 1.24579L15.4569 1.26325L15.47 1.2813L15.4832 1.29994L15.4964 1.31915L15.5095 1.33895L15.5227 1.35932L15.5359 1.38027L15.549 1.40179L15.5622 1.42388L15.5754 1.44654L15.5885 1.46977L15.6017 1.49356L15.6149 1.51791L15.628 1.54283L15.6412 1.56829L15.6544 1.59432L15.6675 1.62089L15.6807 1.64802L15.6939 1.67569L15.707 1.7039L15.7202 1.73266L15.7334 1.76195L15.7465 1.79177L15.7597 1.82213L15.7729 1.85302L15.786 1.88443L15.7992 1.91636L15.8124 1.94881L15.8255 1.98178L15.8387 2.01526L15.8519 2.04924L15.865 2.08373L15.8782 2.11873L15.8914 2.15422L15.9045 2.19021L15.9177 2.22668L15.9309 2.26365L15.944 2.3011L15.9572 2.33902L15.9704 2.37743L15.9835 2.4163L15.9967 2.45564L16.0099 2.49545L16.023 2.53571L16.0362 2.57643L16.0494 2.6176L16.0625 2.65922L16.0757 2.70128L16.0889 2.74378L16.102 2.78672L16.1152 2.83008L16.1284 2.87387L16.1415 2.91808L16.1547 2.96271L16.1679 3.00775L16.181 3.0532L16.1942 3.09905L16.2074 3.1453L16.2205 3.19194L16.2337 3.23896L16.2469 3.28638L16.26 3.33417L16.2732 3.38234L16.2864 3.43087L16.2995 3.47977L16.3127 3.52903L16.3259 3.57864L16.339 3.6286L16.3522 3.67891L16.3654 3.72955L16.3785 3.78053L16.3917 3.83184L16.4049 3.88347L16.418 3.93541L16.4312 3.98767L16.4444 4.04024L16.4575 4.09311L16.4707 4.14628L16.4839 4.19973L16.497 4.25348L16.5102 4.3075L16.5234 4.3618L16.5365 4.41637L16.5497 4.4712L16.5629 4.52629L16.576 4.58163L16.5892 4.63722L16.6024 4.69305L16.6155 4.74911L16.6287 4.8054L16.6419 4.86192L16.655 4.91866L16.6682 4.97561L16.6814 5.03276L16.6945 5.09012L16.7077 5.14767L16.7209 5.20541L16.734 5.26333L16.7472 5.32143L16.7604 5.3797L16.7735 5.43814L16.7867 5.49674L16.7999 5.55549L16.813 5.61438L16.8262 5.67342L16.8394 5.73259L16.8525 5.7919L16.8657 5.85132L16.8789 5.91087L16.892 5.97052L16.9052 6.03028L16.9184 6.09014L16.9315 6.15009L16.9447 6.21013L16.9579 6.27024L16.971 6.33044L16.9842 6.3907L16.9974 6.45102L17.0105 6.5114L17.0237 6.57183L17.0369 6.6323L17.05 6.69281L17.0632 6.75336L17.0764 6.81392L17.0895 6.87451L17.1027 6.93511L17.1159 6.99571L17.129 7.05632L17.1422 7.11692L17.1554 7.17751L17.1685 7.23808L17.1817 7.29862L17.1949 7.35914L17.208 7.41962L17.2212 7.48005L17.2344 7.54044L17.2475 7.60077L17.2607 7.66104L17.2739 7.72124L17.287 7.78137L17.3002 7.84142L17.3134 7.90139L17.3265 7.96126L17.3397 8.02103L17.3529 8.0807L17.366 8.14026L17.3792 8.1997L17.3924 8.25902L17.4055 8.31822L17.4187 8.37727L17.4319 8.43619L17.445 8.49496L17.4582 8.55358L17.4714 8.61204L17.4845 8.67033L17.4977 8.72846L17.5109 8.78641L17.524 8.84417L17.5372 8.90175L17.5504 8.95913L17.5635 9.01632L17.5767 9.0733L17.5899 9.13006L17.603 9.18661L17.6162 9.24294L17.6294 9.29904L17.6425 9.3549L17.6557 9.41052L17.6689 9.4659L17.682 9.52102L17.6952 9.57589L17.7084 9.6305L17.7215 9.68483L17.7347 9.73889L17.7479 9.79268L17.761 9.84618L17.7742 9.89938L17.7874 9.9523L17.8005 10.0049L17.8137 10.0572L17.8269 10.1092L17.84 10.1609L17.8532 10.2122L17.8664 10.2633L17.8795 10.3139L17.8927 10.3643L17.9059 10.4143L17.919 10.464L17.9322 10.5133L17.9454 10.5622L17.9585 10.6108L17.9717 10.659L17.9849 10.7069L17.998 10.7544L18.0112 10.8014L18.0244 10.8481L18.0375 10.8944L18.0507 10.9403L18.0639 10.9858L18.077 11.0309L18.0902 11.0756L18.1034 11.1199L18.1165 11.1637L18.1297 11.2072L18.1429 11.2502L18.156 11.2927L18.1692 11.3349L18.1824 11.3765L18.1955 11.4178L18.2087 11.4586L18.2219 11.4989L18.235 11.5388L18.2482 11.5782L18.2614 11.6171L18.2745 11.6556L18.2877 11.6936L18.3009 11.7311L18.314 11.7681L18.3272 11.8047L18.3404 11.8407L18.3535 11.8763L18.3667 11.9113L18.3799 11.9459L18.393 11.98L18.4062 12.0135L18.4194 12.0466L18.4325 12.0791L18.4457 12.1111L18.4589 12.1426L18.472 12.1735L18.4852 12.204L18.4984 12.2339L18.5115 12.2632L18.5247 12.2921L18.5379 12.3203L18.551 12.3481L18.5642 12.3753L18.5774 12.402L18.5905 12.4281L18.6037 12.4536L18.6169 12.4786L18.63 12.503L18.6432 12.5269L18.6564 12.5502L18.6695 12.5729L18.6827 12.5951L18.6959 12.6167L18.709 12.6377L18.7222 12.6582L18.7354 12.6781L18.7485 12.6974L18.7617 12.7161L18.7749 12.7342L18.788 12.7518L18.8012 12.7687L18.8144 12.7851L18.8275 12.8009L18.8407 12.8161L18.8539 12.8307L18.867 12.8447L18.8802 12.8581L18.8934 12.8709L18.9065 12.8831L18.9197 12.8947L18.9329 12.9057L18.946 12.9161L18.9592 12.9259L18.9724 12.9351L18.9855 12.9437L18.9987 12.9517L19.0119 12.9591L19.025 12.9658L19.0382 12.972L19.0513 12.9775L19.0645 12.9825L19.0777 12.9868L19.0908 12.9905L19.104 12.9936L19.1172 12.9961L19.1303 12.998L19.1435 12.9993L19.1567 12.9999L19.1698 13L19.183 12.9994L19.1962 12.9983L19.2093 12.9965L19.2225 12.9941L19.2357 12.9911L19.2488 12.9874L19.262 12.9832L19.2752 12.9784L19.2883 12.9729L19.3015 12.9668L19.3147 12.9602L19.3278 12.9529L19.341 12.945L19.3542 12.9365L19.3673 12.9274L19.3805 12.9177L19.3937 12.9074L19.4068 12.8965L19.42 12.885L19.4332 12.8729L19.4463 12.8602L19.4595 12.8468L19.4727 12.8329L19.4858 12.8184L19.499 12.8033L19.5122 12.7877L19.5253 12.7714L19.5385 12.7545L19.5517 12.7371L19.5648 12.719L19.578 12.7004L19.5912 12.6812L19.6043 12.6614L19.6175 12.641L19.6307 12.6201L19.6438 12.5986L19.657 12.5765L19.6702 12.5539L19.6833 12.5306L19.6965 12.5069L19.7097 12.4825L19.7228 12.4576L19.736 12.4322L19.7492 12.4061L19.7623 12.3796L19.7755 12.3525L19.7887 12.3248L19.8018 12.2966L19.815 12.2678L19.8282 12.2386L19.8413 12.2088L19.8545 12.1784L19.8677 12.1475L19.8808 12.1161L19.894 12.0842L19.9072 12.0518L19.9203 12.0188L19.9335 11.9853L19.9467 11.9514L19.9598 11.9169L19.973 11.8819L19.9862 11.8464L19.9993 11.8104L20.0125 11.774L20.0257 11.737L20.0388 11.6996L20.052 11.6616L20.0652 11.6233L20.0783 11.5844L20.0915 11.5451L20.1047 11.5053L20.1178 11.465L20.131 11.4243L20.1442 11.3831L20.1573 11.3415L20.1705 11.2995L20.1837 11.257L20.1968 11.214L20.21 11.1707L20.2232 11.1269L20.2363 11.0827L20.2495 11.0381L20.2627 10.993L20.2758 10.9476L20.289 10.9018L20.3022 10.8555L20.3153 10.8089L20.3285 10.7619L20.3417 10.7145L20.3548 10.6667L20.368 10.6185L20.3812 10.57L20.3943 10.5211L20.4075 10.4718L20.4207 10.4222L20.4338 10.3723L20.447 10.322L20.4602 10.2713L20.4733 10.2204L20.4865 10.1691L20.4997 10.1174L20.5128 10.0655L20.526 10.0132L20.5392 9.96068L20.5523 9.90782L20.5655 9.85466L20.5787 9.80121L20.5918 9.74747L20.605 9.69345L20.6182 9.63916L20.6313 9.58459L20.6445 9.52977L20.6577 9.47468L20.6708 9.41935L20.684 9.36376L20.6972 9.30794L20.7103 9.25188L20.7235 9.19559L20.7367 9.13907L20.7498 9.08234L20.763 9.0254L20.7762 8.96824L20.7893 8.91089L20.8025 8.85334L20.8157 8.79561L20.8288 8.73769L20.842 8.67959L20.8552 8.62132L20.8683 8.56289L20.8815 8.5043L20.8947 8.44555L20.9078 8.38665L20.921 8.32762L20.9342 8.26845L20.9473 8.20915L20.9605 8.14972L20.9737 8.09018L20.9868 8.03053L21 7.97077" stroke="white" stroke-miterlimit="10" stroke-linecap="round" stroke-linejoin="round"/>
</svg>
