<svg width="80" height="30" viewBox="140 320 750 350" fill="none" xmlns="http://www.w3.org/2000/svg">
<path d="M153.488 660.583V634.232H177.478V386.173L147.604 372.544V353.917L232.247 332.109H248.995V476.129L249.9 476.583C269.364 451.141 291.543 432.06 324.586 432.06C362.608 432.06 388.408 461.136 388.408 506.568V634.232H408.325V660.583H298.333V634.232H316.891V502.025C316.891 484.307 310.102 479.763 294.712 479.763C278.417 479.763 263.027 484.761 248.995 495.21V634.232H267.553V660.583H153.488Z" fill="white"/>
<path d="M467.193 664.217C428.719 664.217 403.371 635.595 403.371 589.709V465.68H378.928V439.329H474.888V598.795C474.888 616.06 481.678 621.057 496.615 621.057C514.268 621.057 527.847 612.879 542.784 601.067V465.68H516.984V439.329H614.301V618.785L642.818 631.052V648.771L562.248 662.854H545.953V618.331L545.047 617.877C523.773 644.227 500.688 664.217 467.193 664.217Z" fill="white"/>
<path d="M716.334 664.217C666.996 664.217 623.995 623.329 623.995 546.549C623.995 470.223 674.691 432.06 726.292 432.06C752.092 432.06 771.103 442.509 785.588 457.956V386.173L753.903 372.544V353.917L839.905 332.109H856.653V618.785L885.622 631.052V648.771L805.051 662.854H788.304V621.057L787.398 620.603C768.388 647.408 747.566 664.217 716.334 664.217ZM739.419 630.143C759.335 630.143 773.819 614.697 785.588 599.25V481.126C774.725 472.949 762.503 467.042 746.208 467.042C732.629 467.042 723.123 472.04 716.786 479.763C708.639 489.758 704.113 515.655 704.113 551.546C704.113 589.255 709.092 612.879 717.239 621.511C723.576 627.872 730.366 630.143 739.419 630.143Z" fill="white"/>
</svg>
