<svg width="1500" height="1500" viewBox="0 0 1500 1500" fill="none" xmlns="http://www.w3.org/2000/svg">
<path d="M766.859 217.167C766.912 229.775 758.896 237.053 748.476 237.348C738.056 237.644 728.992 230.057 728.952 217.744L728.509 70.3073C728.469 58.6252 736.149 50.5148 747.08 50.3537C756.909 50.206 766.107 57.8195 766.16 69.3674L766.845 217.167H766.859Z" fill="white"/>
<path d="M855.267 263.171C848.849 271.657 837.838 271.322 830.667 267.172C822.92 262.688 818.972 250.374 824.612 241.821C836.213 224.19 850.205 208.547 864.143 192.461L885.855 167.418C891.656 160.717 902.586 161.402 908.548 166.196C914.712 171.151 917.008 181.638 911.502 188.902L855.281 263.171H855.267Z" fill="white"/>
<path d="M674.61 238.946C681.297 248.023 679.645 259.316 671.911 265.788C664.754 271.764 652.159 271.952 645.458 263.116L589.464 189.264C583.637 181.583 586.349 170.68 592.539 165.993C600.932 159.642 611.016 162.448 617.408 170.049C636.703 192.983 656.482 214.374 674.61 238.96V238.946Z" fill="white"/>
<path d="M764.952 1353.4L737.13 1353.26C733.262 1353.25 730.295 1355.97 728.939 1359.72C721.943 1379 713.336 1397.92 697.451 1411.78C667.144 1438.19 624.081 1447.58 585.624 1437.22C556.352 1429.34 534.008 1408.52 524.192 1379.86C514.377 1351.21 519.117 1322.55 524.192 1292.86C518.378 1290.67 509.314 1292.1 502.775 1291.33C495.121 1290.45 487.548 1288.92 480.149 1286.77C458.289 1280.44 437.986 1268.41 420.799 1253.6C381.496 1219.76 388.223 1168.11 407.116 1125.1C413.628 1110.27 422.759 1096.28 430.601 1081.47C392.144 1061.93 356.05 1040.72 324.804 1011.15C272.959 962.084 238.396 897.698 220.47 828.733C218.577 821.455 221.356 813.6 226.016 809.088C230.93 804.322 238.692 802.254 246.117 804.657C314.236 826.733 421.054 874.012 482.177 911.26C485.024 912.992 489.28 914.429 492.234 912.764C521.01 896.503 555.425 904.291 575.943 931.053C579.81 925.144 582.993 918.659 585.423 911.958C507.408 894.516 431.393 876.751 369.746 824.477C352.116 809.532 336.701 793.378 326.697 772.646C323.636 766.308 320.01 761.796 313.256 759.137C292.577 751 275.846 735.384 267.709 714.436C256.121 684.627 278.599 671.723 256.295 646.519C244.157 632.796 231.011 619.448 222.927 602.556C214.575 585.073 218.308 564.113 226.728 547.409C232.381 536.17 234.354 524.783 231.118 512.456C220.792 473.113 203.269 433.461 203.914 395.326C204.706 348.611 232.152 299.103 285.514 301.063C310.879 301.99 335.519 308.811 357.285 321.809C375.332 332.578 388.787 347.322 402.738 362.629C411.802 372.579 420.074 381.844 425.633 395.071C457.161 366.658 491.912 346.248 530.221 329.758C612.587 294.282 697.249 287.125 786.557 290.549C889.763 294.51 995.036 324.36 1074.5 394.507C1080.37 382.073 1088.1 372.418 1097.07 362.374C1112.25 345.375 1127.18 329.02 1147.45 317.821C1169.22 305.803 1193.86 299.17 1218.73 298.995C1246.26 298.794 1268.33 313.35 1281.81 336.875C1313.23 391.727 1287.79 448.889 1271.19 505.836C1266.59 521.627 1267.4 535.431 1275.03 549.893C1283.13 565.241 1285.49 585.691 1277.38 601.415C1268.73 618.173 1255.94 631.399 1243.83 645.216C1222.37 669.735 1243.99 680.76 1233.78 710.099C1226.29 731.61 1209.68 748.14 1188.81 756.734C1182.11 759.486 1178.28 763.864 1175.28 770.269C1165.18 791.834 1149.6 808.78 1131.44 824.141C1068.97 876.952 994.419 894.207 915.302 911.891C917.867 918.471 920.781 924.648 924.447 931.281C943.608 906.507 975.042 897.295 1002.82 909.958C1005.51 911.18 1011.69 914.966 1014.28 913.422C1051.54 891.186 1088.75 872.535 1128.48 854.837C1170.07 836.32 1210.77 818.864 1253.98 804.832C1261.54 802.375 1269.51 803.919 1274.6 808.713C1279.41 813.238 1282.01 821.899 1280.08 829.297C1261.99 898.611 1227.12 963.105 1174.74 1012.17C1143.78 1041.17 1108.34 1062.09 1070.3 1081.28C1078.06 1096.85 1087.31 1110.72 1093.88 1125.71C1112.3 1167.81 1118.88 1218.93 1080.97 1252.55C1061.03 1270.25 1036.74 1283.16 1010.45 1289.79C999.306 1292.59 987.557 1291.17 975.915 1292.26C985.825 1324.19 985.919 1357.95 972.948 1388.82C963.213 1411.98 943.554 1428.12 919.196 1435.88C879.329 1448.6 833.474 1438.76 802.16 1410.71C775.345 1386.68 774.647 1353.45 764.912 1353.41L764.952 1353.4ZM751.457 880.202C827.968 877.651 903.755 872.508 976.238 852.017C1055.47 829.62 1142.1 775.076 1159.98 688.521C1165.84 603.523 1134.38 525.709 1083.12 459.43C1020.43 378.367 916.215 339.601 816.944 330.389C794.345 328.295 773.331 325.032 750.745 324.938C728.59 324.844 708.032 328.187 685.849 330.175C587.504 338.997 482.808 376.97 419.913 456.637C368.363 521.923 332.592 605.604 341.736 690.159C344.099 711.979 355.553 731.422 367.289 749.04C402.819 802.415 470.28 837.528 530.718 853.789C601.496 872.817 676.96 877.959 751.47 880.202H751.457ZM1220.03 614.668C1224.87 607.001 1231.23 599.723 1231.92 590.807C1235.74 541.769 1216.33 540.91 1236.98 490.488C1253 451.373 1276.88 400.966 1256.56 360.911C1249.01 346.06 1235.89 336.553 1218.53 336.902C1197.8 337.318 1176.39 342.568 1158.55 353.7C1144.78 362.294 1133.62 373.372 1121.81 384.275C1111.37 393.916 1103.8 405.706 1098.79 419.174C1125.18 448.93 1145.33 481.062 1162.59 516.108C1183.11 557.788 1194.73 600.797 1198.05 647.956C1207.1 637.079 1212.67 626.323 1220.02 614.655L1220.03 614.668ZM276.37 608.102C285.46 621.543 291.879 634.42 302.581 647.875C306.032 601.106 317.325 558.795 337.426 517.572C354.949 481.599 375.588 448.648 402.362 418.757C397.824 409.425 393.42 400.522 386.518 393.513C354.385 360.897 330.376 340.339 282.668 338.997C265.091 338.5 251.824 347.832 244.157 363.005C223.881 403.181 247.769 453.535 263.748 492.57C283.097 539.835 267.763 537.754 268.246 586.322C268.327 594.07 271.885 601.482 276.356 608.089L276.37 608.102ZM463.996 1027.32C465.204 1024.4 458.96 1019.11 457.295 1016.4C442.686 992.605 444.808 962.192 462.317 939.217L413.521 916.188C365.57 893.549 318.6 871.152 266.917 852.165C284.359 901.028 310.866 943.017 345.483 978.761C372.929 1005.08 403.571 1024.76 437.14 1042.31C440.148 1044.24 447.909 1049.55 450.877 1046.88C456.194 1042.1 461.082 1034.34 463.996 1027.32ZM1051.06 1048.69C1088.56 1029.93 1121.94 1009.78 1151.83 981.984C1188.44 945.89 1215.65 902.358 1233.96 852.138C1177.79 872.749 1126.27 897.577 1073.8 922.539L1038.41 939.378C1058.44 965.629 1058.42 1001.55 1035.88 1026.08C1039.99 1034.42 1044.56 1041.58 1051.06 1048.69ZM905.232 1258.72C905.326 1258.65 905.406 1258.57 905.5 1258.5C919.599 1247.03 928.166 1229.77 933.846 1212.86C959.654 1136.15 933.014 1062.59 906.521 990.215L882.109 923.573C881.075 920.754 877.436 918.686 874.267 919.236C780.434 935.43 720.801 935.417 627.036 919.33C622.927 918.632 619.65 920.512 618.334 924.137L595.104 987.771C570.827 1054.25 545.247 1121.61 560.944 1193.23C564.489 1209.37 569.833 1225.32 578.843 1239.17C595.319 1264.49 619.905 1272 647.58 1279.69C680.975 1288.98 714.544 1294.11 749.322 1294.33C785.819 1294.56 823.148 1288.67 858.154 1278.58C873.864 1274.04 892.247 1269.12 905.218 1258.72H905.232ZM556.567 982.978C560.138 973.659 557.923 967.281 553.572 959.721C545.596 945.863 531.309 938.371 514.981 943.876C501.177 948.522 489.925 960.956 486.434 975.351C482.942 989.745 490.059 1001.96 503.017 1007.55C524.421 1016.78 548.134 1004.95 556.58 982.964L556.567 982.978ZM992.015 1009.52C1003.52 1006.66 1011 999.306 1013.81 990.672C1017.04 980.709 1014.4 971.081 1008.84 962.594C998.877 947.408 981.515 937.041 963.266 944.628C953.894 948.522 943.272 960.728 942.977 971.739C942.319 997.117 968.06 1015.47 992.015 1009.52ZM508.656 1188.54L512.282 1142.92C517.505 1110.65 524.958 1079.7 534.72 1047.62C520.433 1049.14 508.079 1048.68 494.208 1044.97L446.593 1130.7C444.499 1134.46 445.009 1139.59 447.493 1142.82C460.84 1160.24 487.011 1184.45 508.67 1188.53L508.656 1188.54ZM1054.13 1141.51C1056.15 1138.81 1056.16 1134.31 1054.43 1131.18L1006.66 1045.13C992.794 1048.41 980.011 1049.3 966.1 1047.54C980.387 1096.12 990.363 1137.58 992.297 1188.62C1015.18 1183.51 1040.54 1159.71 1054.13 1141.51ZM509.22 1212.26C507.663 1208.89 498.505 1208.13 495 1206.78C473.046 1198.28 454.69 1182.82 438.846 1164.21C433.582 1202.21 481.6 1233.85 514.86 1237.25C513.128 1228.71 512.859 1220.14 509.22 1212.26ZM986.496 1237.33C1012.01 1232.84 1033.57 1221.27 1049.06 1202.83C1058.07 1191.75 1064.14 1178.86 1061.85 1164.4C1044.85 1183.47 1027.33 1199.02 1003.94 1207.29C1000.65 1208.46 992.015 1209.58 990.874 1212.98C988.322 1220.55 987.329 1228.65 986.496 1237.33ZM640.53 1396.49C651.085 1398.32 676.638 1358 680.961 1347.84C635.146 1338.13 597.266 1331.08 558.191 1303.99C555.694 1315.84 554.485 1327.37 556.124 1340.53C569.175 1344.56 581.515 1347.74 594.473 1350.43C615.286 1354.75 601.885 1377.35 611.835 1382.28L640.517 1396.5L640.53 1396.49ZM889.951 1381.65C897.229 1377.98 887.453 1354.36 904.52 1350.8C917.88 1348.01 930.449 1344.73 944.454 1340.84C946.71 1328.41 945.3 1316.38 942.332 1304.12C902.976 1330.96 867.11 1337.82 820.113 1347.82C824.799 1358.38 850.218 1401.67 862.451 1395.51L889.964 1381.63L889.951 1381.65ZM590.176 1389.66C588.484 1382.96 588.753 1375.61 587.894 1368.62L558.89 1362.35C562.784 1385.78 583.65 1401.17 605.793 1401.94C601.281 1396.67 591.868 1396.4 590.176 1389.66ZM907.877 1393.56L893.536 1402.3C916.994 1401.09 937.686 1386.29 941.661 1362.42L914.779 1368.56C909.461 1369.76 914.591 1389.46 907.877 1393.56Z" fill="white"/>
<path d="M941.675 1362.42C937.7 1386.29 916.995 1401.08 893.55 1402.3L907.891 1393.56" fill="white"/>
<path d="M839.503 838.924C780.286 856.246 718.008 855.185 659.974 837.018C643.001 831.7 628.499 820.22 620.536 805.369C617.609 799.903 616.159 795.204 608.921 795.365L569.162 796.251C524.353 797.258 467.366 797.607 426.855 777.506C400.536 764.454 396.051 737.478 396.562 709.709L398.737 593.143C399.328 561.467 402.792 529.442 435.18 515.799C481.492 496.289 559.776 489.091 611.298 483.841C701.949 474.616 798.185 474.576 888.89 483.801C937.431 488.742 1033.16 497.094 1073.53 520.217C1089.9 529.59 1098.44 547.623 1100.11 566.825C1103.55 606.745 1102.81 645.968 1103.77 686.305C1104.62 721.526 1108.03 761.715 1072.42 778.258C1038.17 794.183 989.504 797.661 951.732 796.708L893.979 795.257C885.855 795.056 884.109 798.87 881.155 805.342C873.784 821.495 858.154 833.459 839.503 838.911V838.924ZM828.411 627.115C854.891 666.19 880.551 724.654 886.486 771.477C891.924 773.29 898.397 772.162 904.466 772.699C950.496 776.741 1021.06 778.406 1062.89 759.016C1073.4 754.142 1079.31 745.239 1080.93 733.866C1083.7 714.57 1082.37 695.892 1081.97 676.1C1081.23 639.657 1081.66 604.06 1078.64 568.087C1077.25 551.638 1068.41 539.58 1053.55 534.007C1012.64 518.632 942.99 510.63 898.061 506.48C768.725 494.53 733.96 494.463 604.611 506.306C567.134 509.73 531.591 514.268 494.759 521.076C475.476 524.635 457.08 528.932 439.571 537.874C428.318 543.622 422.504 556.942 421.779 570.128C418.878 622.912 417.858 675.187 418.852 727.85C419.147 743.44 427.499 755.243 440.887 760.574C492.087 780.957 547.181 774.122 596.971 772.739L613.957 772.269C617.891 725.017 656.093 634.554 691.086 605.309C734.592 568.946 796.762 580.454 828.398 627.129L828.411 627.115Z" fill="white"/>
<path d="M525.28 720.451C514.055 734.59 495.216 735.154 482.849 722.787C475.168 715.106 469.555 705.505 465.768 694.696C453.187 658.764 451.495 619.837 461.498 583.071C464.466 572.181 469.394 562.164 476.417 554.215C487.911 541.217 506.173 540.908 517.976 553.356C550.847 588.013 555.573 682.329 525.28 720.437V720.451Z" fill="white"/>
<path d="M1017.82 722.788C1005.38 735.357 987.275 734.161 976.144 721.19C945.461 685.419 949.449 589.008 982.347 553.652C994.244 540.869 1013.14 541.003 1024.66 554.525C1032.06 563.213 1037.08 574.103 1039.99 585.771C1048.84 621.301 1047.26 658.429 1035.57 693.046C1031.77 704.298 1026.24 714.302 1017.84 722.788H1017.82Z" fill="white"/>
</svg>
