<?xml version="1.0" encoding="utf-8"?>
<svg viewBox="0 0 100 100" xmlns="http://www.w3.org/2000/svg">
  <defs>
    <style>
      .stroke { fill: none; stroke: #FFFFFF; stroke-width: 4; stroke-linecap: round; stroke-linejoin: round; }
      .fill { fill: #FFFFFF; }
    </style>
  </defs>

  <!-- Sparkle lines above head -->
  <line class="stroke" x1="50" y1="5" x2="50" y2="18"/>
  <line class="stroke" x1="36" y1="10" x2="41" y2="21"/>
  <line class="stroke" x1="64" y1="10" x2="59" y2="21"/>

  <!-- Left ear (fluffy outer shape) -->
  <path class="stroke" d="M 22 55
    C 10 55, 2 45, 4 33
    C 6 21, 16 15, 28 18
    C 36 20, 38 28, 36 38"/>

  <!-- Left ear (inner curve) -->
  <path class="stroke" d="M 20 45
    C 14 44, 11 38, 12 31
    C 13 24, 19 21, 26 24
    C 30 26, 31 32, 29 38"/>

  <!-- Right ear (fluffy outer shape) -->
  <path class="stroke" d="M 78 55
    C 90 55, 98 45, 96 33
    C 94 21, 84 15, 72 18
    C 64 20, 62 28, 64 38"/>

  <!-- Right ear (inner curve) -->
  <path class="stroke" d="M 80 45
    C 86 44, 89 38, 88 31
    C 87 24, 81 21, 74 24
    C 70 26, 69 32, 71 38"/>

  <!-- Head outline -->
  <ellipse class="stroke" cx="50" cy="60" rx="30" ry="28"/>

  <!-- Left eye -->
  <rect class="fill" x="37" y="52" width="8" height="16" rx="2"/>

  <!-- Right eye -->
  <rect class="fill" x="55" y="52" width="8" height="16" rx="2"/>

  <!-- Nose -->
  <path class="fill" d="M 50 70
    C 42 70, 40 78, 44 84
    C 47 88, 53 88, 56 84
    C 60 78, 58 70, 50 70 Z"/>
</svg>
