<?xml version="1.0" encoding="utf-8"?>
<!-- Generator: Adobe Illustrator 30.1.0, SVG Export Plug-In . SVG Version: 9.03 Build 0)  -->
<svg version="1.0" id="Layer_1" xmlns="http://www.w3.org/2000/svg" xmlns:xlink="http://www.w3.org/1999/xlink" x="0px" y="0px"
	 viewBox="0 0 1117.09 1117.09" style="enable-background:new 0 0 1117.09 1117.09;" xml:space="preserve">
<style type="text/css">
	.st0{fill:none;}
</style>
<path class="st0" d="M448.34,949.66c5.44,13.29,16.48,21.99,29.04,24.76c22.74,5.01,42.55-9.36,52.93-30.69
	c-28.14-4.59-54.5-10.46-79.95-21.58C444.05,930.53,444.58,940.5,448.34,949.66z"/>
<path class="st0" d="M587.72,943.99c5.89,10.91,12.74,19.23,22.5,25.26c22.44,13.87,50.72,3.46,59.84-20.24
	c3.55-9.24,3.86-18.65-2.22-26.88C642.24,933.58,615.44,938.88,587.72,943.99z"/>
<path class="st0" d="M706.78,874.14c7.87,0.41,20.95-4.87,21.57-14.82c1.75-28.16-32.06-79.14-49.33-101.88l24.39,92.06
	C705.6,857.76,706.21,865.38,706.78,874.14z"/>
<path class="st0" d="M412.54,796.99c-8.35,13.76-25.48,47.29-22.67,62.95c1.79,9.97,13.58,14.48,21.62,14.21
	c0.42-9.12,1.2-16.92,3.47-25.52l24-90.88C429.15,770.87,420.71,783.52,412.54,796.99z"/>
<path class="st0" d="M392.07,343.08c-28.84-21.51-82.83-44.67-118.04-39.56c-14.68,2.67-25.98,10.17-36.93,19.56
	c-10.48,8.99-19.11,19.98-20.28,34.22c-0.76,9.16,1.15,17.05,6.24,24.61c8.79,13.05,14.89,28.16,15.32,44.04
	c0.29,10.65-5.55,19.48-13.37,25.62c-4.98,3.91-6.62,10.12-3.47,15.95c2.75,5.1,8.03,8.77,13.37,11.21
	c13.34,6.11,29.12,20.78,27.13,36.87l-1.58,12.78c7.44,17.32,23.07,23.29,39,31.02c-7.05-25.62-0.39-57.16,5.22-82.9
	c2.4-11.03,6.7-21.48,11.49-31.81C334.17,405.92,359.85,372.48,392.07,343.08z"/>
<path class="st0" d="M478.16,712.36l-14.1,48.16c-10.44,35.65-20.69,70.55-27.8,107.1c-2.26,11.63,6.96,21.78,16.21,26.93
	c15.57,8.68,31.9,13.01,49.01,17.58c13.6,3.63,35.18,5.4,57.19,5.36l0.12-235.03c-23.89,0.06-46.96-0.35-70.39-3.1L478.16,712.36z"
	/>
<path class="st0" d="M623.21,910.67c15.3-4.53,29.68-9.01,43.02-16.36c12.57-6.93,18.3-19.24,14.83-33.25l-7.83-31.57L644.8,728.54
	l-15.33-49.33c-23.77,3.19-46.5,3.19-70.4,3.25c-0.1,0-0.2,0-0.3,0l-0.12,235.03C583.1,917.44,608.07,915.15,623.21,910.67z"/>
<path class="st0" d="M588.59,460.87c17.77,23.98,34.44,64.99,37.13,94.84c2.02,22.37-19.74,34.46-38.72,37.28
	c-9.49,1.41-18.87,2.06-28.18,2.05l-0.03,62.36c10.15-0.06,20.18-0.37,30.36-0.7c36.45-1.2,74.4-9.21,109.49-19.07
	c20.88-5.87,38.86-15.99,55.71-29.08c13.44-10.45,23.34-22.55,32.12-36.93c9.35-15.32,12.84-31.37,10.42-49.66
	c-3.67-27.7-7.59-49.41-20.78-74.24c-14.7-27.67-32.05-53.07-55.41-74.18c-37.76-34.13-83.06-61.3-133.06-72.76
	c-9.34-2.14-19-3.21-28.65-3.23l-0.08,150.03C570.41,447.66,581.5,451.31,588.59,460.87z M693.02,431.3
	c10.87-1.15,21.39-1.39,32.28,0.97c2.74,0.59,4.42,6.61,4.57,9.3l1.05,18.35l0.12,45.55c0.01,5.24-4.43,9.91-10.23,9.77l-26.58-0.63
	c-5.98-0.14-10.49-2.05-10.99-9.17l-0.67-9.65l-0.11-54.09C682.45,435.72,687.67,431.87,693.02,431.3z"/>
<path class="st0" d="M529.51,300.88c-49.26,11.54-97.19,39.49-133.91,74.05c-27.64,26.01-57.67,70.99-67.36,107.78
	c-3.25,12.33-5.32,24.45-6.9,37.13c-1.91,15.31-0.78,30.41,6.19,43.99c6.34,12.35,13.37,23.8,23.34,33.5
	c26.86,26.13,52.53,37.34,88.64,45.68c24.94,5.76,49.14,11.56,74.8,12.91l17.01,0.9c9.37,0.5,18.47,0.63,27.48,0.57l0.03-62.36
	c-9.11-0.01-18.15-0.67-27.15-1.89c-10.93-1.49-20.8-5.75-29.06-12.33c-7.92-6.31-11.01-14.91-10.19-25.19
	c2.24-28.09,17.94-67.1,33.59-90.48c7.2-10.75,17.94-17.21,30.88-17.57c0.67-0.02,1.33-0.02,2-0.01l0.08-150.03
	C549.03,297.52,539.09,298.63,529.51,300.88z M436.27,504.79c0,5.78-4.48,10.45-10,10.45h-27.3c-5.52,0-10-4.68-10-10.45v-64.02
	c0-5.77,4.48-10.45,10-10.45h27.3c5.52,0,10,4.68,10,10.45V504.79z"/>
<path class="st0" d="M901.3,356.28c-1.62-13.87-9.94-24.4-20.24-33.22c-18.32-15.68-33.36-21.87-58.19-20.02
	c-18.5,3.02-35.95,7.84-52.99,15.45c-15.33,6.84-30.27,13.94-43.97,24.57c35.2,32.77,59.66,64.83,78.88,107.52
	c5.7,13.97,9.63,27.01,11.96,41.72c3.95,24.97,8.39,40.45,1.91,67.15c15.32-7.49,31.45-13.65,38.59-30.19
	c2.42-5.6-9.49-19.81,9.84-39.25c13.48-13.56,23.23-10.92,29.58-22.48c3.21-5.85,1.44-12.13-3.49-15.9
	c-9.27-7.1-14.5-17.72-13.19-29.43C884.22,384.29,904.34,382.33,901.3,356.28z"/>
<path d="M500.64,248.99c5.18,5.4,10.98,9.61,19.07,6.48c8.15-3.16,12.65-15.53,6.11-22.91c-13.02-14.7-26.45-28.42-40.62-42.01
	c-5.88-5.64-15.25-3.13-19.58,2.04c-4.41,5.27-5.3,14.34,0.07,19.94L500.64,248.99z"/>
<path d="M501.47,912.13c-17.11-4.57-33.44-8.9-49.01-17.58c-9.24-5.15-18.47-15.31-16.21-26.93c7.11-36.56,17.36-71.45,27.8-107.1
	l14.1-48.16l10.23-33c23.43,2.75,46.5,3.16,70.39,3.1l0.01-25.07c-9.01,0.06-18.11-0.08-27.48-0.57l-17.01-0.9
	c-25.66-1.36-49.86-7.15-74.8-12.91c-36.11-8.35-61.78-19.55-88.64-45.68c-9.97-9.7-17-21.14-23.34-33.5
	c-6.97-13.57-8.1-28.68-6.19-43.99c1.58-12.68,3.65-24.79,6.9-37.13c9.69-36.79,39.72-81.77,67.36-107.78
	c36.72-34.55,84.65-62.5,133.91-74.05c9.58-2.25,19.52-3.35,29.47-3.34l0.01-26.64c-20.63-0.02-41.26,3.57-60.57,10.79
	c-30.44,11.37-58.13,27.46-85.52,45.45c-34.18-24.18-72.16-43.93-114.17-49.3c-38.39-4.07-54.18,5.3-81.13,29.17
	c-16.93,14.99-26.83,36-25.28,58.69c1.84,26.86,15.83,30.01,21.46,56c0.9,4.13-1.18,7.75-4.14,10.14
	c-11.35,9.2-16.05,22.46-13.41,36.84c2.67,14.54,12.48,25.51,25.92,32c5.82,2.82,12.81,6.47,15.44,12.63
	c-1.25,9.67-2.65,19.08,1.58,27.99c6.82,14.4,18.08,24.81,31.88,32.49c14.16,7.88,28.37,14.42,44.16,17.57
	c6.18,8.02,10.94,16.55,18.13,23.55c25.55,24.91,56.65,41.56,91.45,50.05l37.3,9.1c-9.43,17.11-19.6,30.75-29.47,46.13l-22.69,35.35
	c-18.8,29.29-42.1,62.86-44.98,99.88c-0.87,11.21,2.69,21.19,10.71,28.89c16.03,15.38,23.08,14.54,45.93,17.4l7.01,7.25
	c-3.9,9.48-8.28,18.01-7.65,28.38c1.34,21.79,12.57,42.04,30.45,54.27c8.49,5.81,18.5,8.29,28.64,9.42
	c21.71,2.42,41.82-7.58,55.72-23.92c8.34-9.81,14.58-19.39,18-32.15l4.9,0.06l0.01-27.53C536.65,917.53,515.07,915.76,501.47,912.13
	z M304.68,476.51c-5.61,25.75-12.27,57.28-5.22,82.9c-15.94-7.73-31.56-13.7-39-31.02l1.58-12.78
	c1.99-16.09-13.79-30.76-27.13-36.87c-5.34-2.44-10.62-6.12-13.37-11.21c-3.15-5.83-1.51-12.04,3.47-15.95
	c7.81-6.14,13.65-14.97,13.37-25.62c-0.43-15.88-6.53-30.99-15.32-44.04c-5.09-7.56-7-15.45-6.24-24.61
	c1.17-14.24,9.8-25.23,20.28-34.22c10.95-9.39,22.25-16.9,36.93-19.56c35.21-5.11,89.21,18.05,118.04,39.56
	c-32.22,29.4-57.91,62.84-75.91,101.62C311.37,455.02,307.08,465.48,304.68,476.51z M411.49,874.15
	c-8.04,0.27-19.83-4.24-21.62-14.21c-2.81-15.67,14.33-49.19,22.67-62.95c8.17-13.47,16.61-26.12,26.41-39.25 M477.37,974.42
	c-12.56-2.77-23.6-11.47-29.04-24.76c-3.75-9.16-4.28-19.14,2.01-27.51c25.45,11.12,51.81,16.99,79.95,21.58
	C519.92,965.06,500.11,979.43,477.37,974.42z"/>
<path d="M556.9,447.58c-12.94,0.35-23.68,6.82-30.88,17.57c-15.65,23.37-31.34,62.39-33.59,90.48
	c-0.82,10.29,2.27,18.89,10.19,25.19c8.26,6.57,18.13,10.84,29.06,12.33c9,1.22,18.04,1.88,27.15,1.89l0.08-147.47
	C558.23,447.56,557.56,447.56,556.9,447.58z"/>
<path d="M544.23,161.51v65.16c0,8.73,6.6,15.81,14.77,15.88l0.05-96.92C550.86,145.67,544.23,152.76,544.23,161.51z"/>
<path d="M426.27,430.33h-27.3c-5.52,0-10,4.68-10,10.45v64.02c0,5.77,4.48,10.45,10,10.45h27.3c5.52,0,10-4.67,10-10.45v-64.02
	C436.27,435.01,431.79,430.33,426.27,430.33z"/>
<path d="M617.25,248.99c-5.18,5.4-10.98,9.61-19.07,6.48c-8.15-3.16-12.65-15.53-6.11-22.91c13.02-14.7,26.45-28.42,40.62-42.01
	c5.88-5.64,15.25-3.13,19.58,2.04c4.41,5.27,5.3,14.34-0.07,19.94L617.25,248.99z"/>
<path d="M559.23,917.49l0.01,27.53l4.9-0.06c3.43,12.77,9.66,22.35,18,32.15c13.9,16.34,34.01,26.34,55.72,23.92
	c10.14-1.13,20.15-3.62,28.64-9.42c17.88-12.23,29.11-32.48,30.45-54.27c0.64-10.37-3.75-18.9-7.65-28.38l7.01-7.25
	c22.85-2.86,29.9-2.02,45.93-17.4c8.02-7.69,11.58-17.68,10.71-28.89c-2.88-37.02-26.17-70.59-44.98-99.88l-22.69-35.35
	c-9.87-15.38-20.04-29.02-29.47-46.13l37.3-9.1c34.8-8.49,65.89-25.14,91.45-50.05c7.18-7,11.95-15.53,18.13-23.55
	c15.8-3.15,30-9.68,44.16-17.57c13.8-7.68,25.05-18.09,31.88-32.49c4.22-8.91,2.83-18.32,1.58-27.99
	c2.63-6.17,9.62-9.82,15.44-12.63c13.43-6.49,23.24-17.46,25.92-32c2.64-14.38-2.06-27.64-13.41-36.84
	c-2.95-2.39-5.03-6.01-4.14-10.14c5.63-25.99,19.62-29.14,21.46-56c1.56-22.7-8.35-43.7-25.28-58.69
	c-26.95-23.86-42.74-33.24-81.13-29.17c-42.01,5.38-79.98,25.12-114.17,49.3c-27.39-17.99-55.08-34.07-85.52-45.45
	c-19.31-7.22-39.94-10.81-60.57-10.79l0.01,26.64c9.94-0.01,19.89,1.09,29.47,3.34c49.26,11.54,97.19,39.49,133.91,74.05
	c27.64,26.01,57.67,70.99,67.36,107.78c3.25,12.33,5.32,24.45,6.9,37.13c1.91,15.31,0.78,30.41-6.19,43.99
	c-6.34,12.35-13.37,23.8-23.34,33.5c-26.86,26.13-52.53,37.34-88.64,45.68c-24.94,5.76-49.14,11.56-74.8,12.91l-17.01,0.9
	c-9.37,0.5-18.47,0.63-27.48,0.57l0.01,25.07c23.89,0.06,46.96-0.35,70.39-3.1l10.23,33l14.1,48.16
	c10.44,35.65,20.69,70.55,27.8,107.1c2.26,11.63-6.96,21.78-16.21,26.93c-15.57,8.68-31.9,13.01-49.01,17.58
	C602.82,915.76,581.24,917.53,559.23,917.49z M801.72,444.69c-18-38.77-43.68-72.22-75.91-101.62
	c28.84-21.51,82.83-44.67,118.04-39.56c14.68,2.67,25.98,10.17,36.93,19.56c10.48,8.99,19.11,19.98,20.28,34.22
	c0.76,9.16-1.15,17.05-6.24,24.61c-8.79,13.05-14.89,28.16-15.32,44.04c-0.29,10.65,5.55,19.48,13.37,25.62
	c4.98,3.91,6.62,10.12,3.47,15.95c-2.75,5.1-8.03,8.77-13.37,11.21c-13.34,6.11-29.12,20.78-27.13,36.87l1.58,12.78
	c-7.44,17.32-23.07,23.29-39,31.02c7.05-25.62,0.39-57.16-5.22-82.9C810.81,465.48,806.52,455.02,801.72,444.69z M678.94,757.74
	c9.8,13.13,18.24,25.78,26.41,39.25c8.35,13.76,25.48,47.29,22.67,62.95c-1.79,9.97-13.58,14.48-21.62,14.21 M667.54,922.16
	c6.29,8.37,5.76,18.35,2.01,27.51c-5.44,13.29-16.48,21.99-29.04,24.76c-22.74,5.01-42.55-9.36-52.93-30.69"/>
<path d="M560.99,447.58c12.94,0.35,23.68,6.82,30.88,17.57c15.65,23.37,31.34,62.39,33.59,90.48c0.82,10.29-2.27,18.89-10.19,25.19
	c-8.26,6.57-18.13,10.84-29.06,12.33c-9,1.22-18.04,1.88-27.15,1.89l-0.08-147.47C559.66,447.56,560.33,447.56,560.99,447.58z"/>
<path d="M573.66,161.51v65.16c0,8.73-6.6,15.81-14.77,15.88l-0.05-96.92C567.03,145.67,573.66,152.76,573.66,161.51z"/>
<path d="M691.62,430.33h27.3c5.52,0,10,4.68,10,10.45v64.02c0,5.77-4.48,10.45-10,10.45h-27.3c-5.52,0-10-4.67-10-10.45v-64.02
	C681.62,435.01,686.1,430.33,691.62,430.33z"/>
</svg>
