<?xml version="1.0" encoding="utf-8"?>
<!-- Generator: Adobe Illustrator 30.1.0, SVG Export Plug-In . SVG Version: 9.03 Build 0)  -->
<svg version="1.0" id="Layer_1" xmlns="http://www.w3.org/2000/svg" xmlns:xlink="http://www.w3.org/1999/xlink" x="0px" y="0px"
	 viewBox="0 0 1117.09 1117.09" style="enable-background:new 0 0 1117.09 1117.09;" xml:space="preserve">
<style type="text/css">
	.st0{fill:none;}
	.st1{fill:#FFFFFF;}
</style>
<path class="st0" d="M969.99,517.65c14.67-21.58,7.76-47.73-9.82-64.34c-10.66-10.09-13.59-12.42-25.37-20.94
	c-21.43-15.51-51.49-12.62-75.67-6.32c-17.65,4.6-34.27,10.09-50.56,18.17l-27.12,13.46c-6.57,3.26-12.72,7.28-18.51,11.52
	c40,36.06,75.13,83.07,96.44,131.95c12.73,29.22,24.94,79.04,21.26,110.56l-2.66,22.8c20.65-10.6,26.03-10.93,40.51-27.37
	c14.21-16.1-8.83-27.24,14.53-54.39c16.2-18.83,32.39-15.56,39.52-31.71c8.34-18.89-23.77-19.26-21.19-52.35
	C952.81,549.95,959.58,532.95,969.99,517.65z"/>
<path class="st0" d="M326.69,495.99c6.45-7.07,13.26-13.64,20.25-20.12l7.59-7.03c-33.26-20.29-67.52-36.48-104.92-44.66
	c-18.58-4.06-38.33-4.43-56.29,2.49c-16.23,6.26-32.08,19.62-42.51,33.46c-2.61,3.46-4.92,7.14-6.8,11.04
	c-7.7,15.92-6.09,33.43,3.84,48c9.75,14.33,15.98,30.76,17.68,48.04c1.41,14.39-4.15,26.66-15.29,35.31
	c-6.63,5.14-9.58,13.5-4.42,21.24c10.32,15.46,26.53,10.72,43.39,36.21c6.27,9.49,7.27,20.93,4.02,32.31
	c5,19.64,24.66,36.06,45.3,39.15c-10.05-76.15,17.56-142.16,59.9-200.58C303.75,523.5,320.74,502.49,326.69,495.99z"/>
<path class="st0" d="M560.68,597.8c16.3,0.4,28.5,8.79,37.9,21.75c9.06,12.49,16,27.12,22.16,41.2
	c6.28,14.34,11.61,29.09,16.06,44.11c4.82,16.28,8.13,42.41-6.28,54.32c-21.91,18.12-45.83,19.66-72.04,19.76v68.21
	c22.54-0.14,45.13-1.21,67.81-3.25c57.7-5.2,120.37-20.39,170.27-49.84c20.52-12.1,38.56-37.48,45.66-60.17
	c7.22-23.04,8.21-46.37,3.07-69.93c-2.47-11.31-5.09-22.06-9.37-32.75c-18.32-45.82-42.65-81.94-73.86-119.77
	c-15.69-14.95-31.62-27.97-49-40.74c-15.69-11.54-35.45-20.84-53.83-27.83c-26.08-9.93-52.29-16.03-80.57-17.09
	c-6.73-0.25-13.47-0.24-20.18-0.01V597.8C559.22,597.79,559.95,597.78,560.68,597.8z M712.69,593.92c0-7.09,5.76-12.85,12.85-12.85
	h35.07c7.09,0,12.85,5.76,12.85,12.85v77.25c0,7.09-5.76,12.85-12.85,12.85h-35.07c-7.09,0-12.85-5.76-12.85-12.85V593.92z"/>
<path class="st0" d="M344.62,523.69l-16.7,19.99c-12.96,15.52-22.1,32.34-30.86,50.62c-30.19,62.94-31.12,138.04,17.4,192.24
	c16.55,18.49,39.56,32.97,63.53,39.29c17.29,4.56,33.66,8.65,51.58,11.51c42.92,6.87,85.82,10.07,128.91,9.8v-68.21
	c-3.97,0.02-7.99,0-12.06,0c-28.74,0.01-75.62-12.23-69.89-50.83c3.16-21.29,8.88-42.19,16.95-62.15
	c7.37-18.24,16.45-37.75,29.68-52.57c8.87-9.95,22.11-15.34,35.33-15.59V425.78c-70.75,2.44-139.87,31.03-193.03,76.77
	C357.82,509.13,350.9,516.17,344.62,523.69z M408.95,593.18v78.72c0,7.1-5.76,12.85-12.85,12.85h-35.07
	c-7.09,0-12.85-5.76-12.85-12.85v-78.72c0-7.09,5.76-12.85,12.85-12.85h35.07C403.19,580.34,408.95,586.09,408.95,593.18z"/>
<path class="st1" d="M465.39,333.47c8.79,9.46,17.73,18.37,27.07,27.19c5.86,5.52,14.4,5.76,21.47,0.81
	c8.71-6.09,10.6-19.31,3.85-27.26c-2.78-3.28-5.59-6.86-8.47-9.78l-38.2-38.72c-6.8-6.87-16.54-9.06-24.45-2.7
	c-7.75,6.22-10.89,18.6-3.34,26.74L465.39,333.47z"/>
<path class="st1" d="M348.18,593.18v78.72c0,7.09,5.76,12.85,12.85,12.85h35.07c7.09,0,12.85-5.74,12.85-12.85v-78.72
	c0-7.09-5.76-12.85-12.85-12.85h-35.07C353.94,580.34,348.18,586.09,348.18,593.18z"/>
<g id="Layer_2_00000100368297480368467770000001098418516293550217_">
	<path class="st1" d="M429.57,837.35c-17.92-2.87-34.29-6.95-51.58-11.51c-23.97-6.32-46.98-20.8-63.53-39.29
		c-48.51-54.21-47.59-129.3-17.4-192.24c8.76-18.28,17.9-35.1,30.86-50.62l16.7-19.99c6.28-7.52,13.19-14.56,20.84-21.13
		c53.15-45.74,122.28-74.34,193.03-76.77v-40.54c-6.12,0.17-12.24,0.52-18.33,0.99c-3.39,0.27-6.77,0.58-10.15,0.95
		c-41.77,4.59-81.7,18.22-117.7,39.85c-6.53,3.91-12.9,8.07-19.12,12.45c-1.58,1.12-13.27,11.38-14.78,10.51
		c-2.21-1.3-5.32-3.55-7.54-5.22c-13.28-9.93-27.1-17.51-41.87-25.45c-29.06-15.61-60.35-25.9-93.33-29.74
		c-21.33-2.48-38.74-0.42-57.78,8.44c-21.82,10.15-40.56,24.74-53.86,44.94c-10.63,16.14-16.59,34.88-15.15,54.24
		c0.71,9.53,2.07,19.88,6.73,27.82l9.37,15.96c5.65,9.64,16,29.36,5.6,37.53c-17.16,13.52-22.57,35.05-14.25,55.41
		c14.27,34.93,52,31.05,47.6,50.06c-3.75,16.24,0.55,31.22,11.05,43.63c5.16,6.09,10.78,12.64,17.29,17.29
		c16.84,12.03,45.19,25.7,65.34,29.61c10.59,16.89,22.77,31.18,38.09,43.5c21.07,16.94,45.02,29.79,70.39,39.01
		c38.88,14.13,79.88,21.54,120.95,25.95c23.64,2.54,47.52,4.14,71.43,4.53v-40.37C515.39,847.42,472.49,844.21,429.57,837.35z
		 M238.54,731.41c-20.65-3.08-40.3-19.5-45.3-39.15c3.25-11.38,2.25-22.82-4.02-32.31c-16.86-25.49-33.07-20.75-43.39-36.21
		c-5.16-7.73-2.21-16.1,4.42-21.24c11.14-8.65,16.7-20.92,15.29-35.31c-1.7-17.28-7.93-33.71-17.68-48.04
		c-9.93-14.57-11.54-32.08-3.84-48c1.88-3.89,4.19-7.58,6.8-11.04c10.43-13.84,26.29-27.2,42.51-33.46
		c17.96-6.93,37.71-6.55,56.29-2.49c37.4,8.18,71.65,24.37,104.92,44.66l-7.59,7.03c-6.99,6.48-13.8,13.05-20.25,20.12
		c-5.95,6.5-22.93,27.51-28.25,34.84C256.1,589.25,228.49,655.27,238.54,731.41z"/>
	<path class="st1" d="M558.49,847.15v40.37c23.91-0.39,47.78-1.99,71.43-4.53c41.07-4.41,82.07-11.82,120.95-25.95
		c25.37-9.22,49.32-22.07,70.39-39.01c15.33-12.32,27.51-26.61,38.09-43.5c20.16-3.92,48.5-17.59,65.34-29.61
		c6.51-4.65,12.13-11.2,17.29-17.29c10.5-12.41,14.8-27.39,11.05-43.63c-4.39-19,33.33-15.12,47.6-50.06
		c8.33-20.36,2.92-41.9-14.25-55.41c-10.39-8.17-0.05-27.89,5.6-37.53l9.37-15.96c4.66-7.94,6.03-18.28,6.73-27.82
		c1.44-19.36-4.52-38.11-15.15-54.24c-13.3-20.2-32.04-34.79-53.86-44.94c-19.04-8.87-36.45-10.92-57.78-8.44
		c-32.98,3.84-64.27,14.13-93.33,29.74c-14.78,7.94-28.59,15.52-41.87,25.45c-2.22,1.67-5.33,3.92-7.54,5.22
		c-1.5,0.87-13.19-9.39-14.78-10.51c-6.22-4.38-12.59-8.54-19.12-12.45c-36-21.64-75.93-35.27-117.7-39.85
		c-3.38-0.37-6.76-0.68-10.15-0.95c-6.1-0.47-12.21-0.82-18.33-0.99v40.54c70.75,2.44,139.87,31.03,193.03,76.77
		c7.64,6.58,14.56,13.62,20.84,21.13l16.7,19.99c12.96,15.52,22.1,32.34,30.86,50.62c30.19,62.94,31.12,138.04-17.4,192.24
		c-16.55,18.49-39.56,32.97-63.53,39.29c-17.29,4.56-33.66,8.65-51.58,11.51C644.48,844.21,601.58,847.42,558.49,847.15z
		 M818.54,530.83c-5.32-7.34-22.3-28.34-28.25-34.84c-6.45-7.07-13.26-13.64-20.25-20.12l-7.59-7.03
		c33.26-20.29,67.52-36.48,104.92-44.66c18.58-4.06,38.33-4.43,56.29,2.49c16.23,6.26,32.08,19.62,42.51,33.46
		c2.61,3.46,4.92,7.14,6.8,11.04c7.7,15.92,6.09,33.43-3.84,48c-9.75,14.33-15.98,30.76-17.68,48.04
		c-1.41,14.39,4.15,26.66,15.29,35.31c6.63,5.14,9.58,13.5,4.42,21.24c-10.32,15.46-26.53,10.72-43.39,36.21
		c-6.27,9.49-7.27,20.93-4.02,32.31c-5,19.64-24.66,36.06-45.3,39.15C888.48,655.27,860.87,589.25,818.54,530.83z"/>
</g>
<path class="st1" d="M651.58,333.47c-8.79,9.46-17.73,18.37-27.07,27.19c-5.86,5.52-14.4,5.76-21.47,0.81
	c-8.71-6.09-10.6-19.31-3.85-27.26c2.78-3.28,5.59-6.86,8.47-9.78l38.2-38.72c6.8-6.87,16.54-9.06,24.45-2.7
	c7.75,6.22,10.89,18.6,3.34,26.74L651.58,333.47z"/>
<g id="Layer_4">
	<path class="st1" d="M593.82,613.39c13.23,14.83,22.3,34.33,29.68,52.57c8.07,19.95,13.79,40.86,16.95,62.15
		c5.73,38.59-41.15,50.84-69.89,50.83c-4.08,0-8.1,0.02-12.06,0V597.8C571.71,598.06,584.94,603.45,593.82,613.39z"/>
	<path class="st1" d="M523.15,613.39c-13.23,14.83-22.3,34.33-29.68,52.57c-8.07,19.95-13.79,40.86-16.95,62.15
		c-5.73,38.59,41.15,50.84,69.89,50.83c4.08,0,8.1,0.02,12.06,0V597.8C545.26,598.06,532.03,603.45,523.15,613.39z"/>
</g>
<path class="st1" d="M768.79,593.18v78.72c0,7.09-5.76,12.85-12.85,12.85h-35.07c-7.09,0-12.85-5.74-12.85-12.85v-78.72
	c0-7.09,5.76-12.85,12.85-12.85h35.07C763.04,580.34,768.79,586.09,768.79,593.18z"/>
<g id="Layer_3">
	<path class="st1" d="M539.36,248.46v78.51c0,10.57,8.56,19.14,19.13,19.14v-116.8C547.92,229.33,539.36,237.89,539.36,248.46z"/>
	<path class="st1" d="M577.62,248.46v78.51c0,10.57-8.56,19.14-19.13,19.14v-116.8C569.05,229.33,577.62,237.89,577.62,248.46z"/>
</g>
</svg>
