<svg width="1500" height="1500" viewBox="0 0 1500 1500" fill="none" xmlns="http://www.w3.org/2000/svg">
<path d="M1007.49 1356.89C937.911 1375.08 868.641 1384.86 797.131 1386.69C703.647 1389.08 610.986 1378.63 520.074 1357.56C479.469 1348.14 441.283 1334.3 404.692 1315.54C328.808 1276.66 271.4 1212.04 241.859 1132.27C236.764 1118.51 227.527 1109.71 215.638 1102.3C198.578 1091.64 182.959 1080.45 169.141 1066.06C146.316 1042.31 136.821 1010.82 144.824 978.55C146.033 973.687 144.515 968.746 140.038 965.941L109.185 946.591C85.0225 931.435 72.6969 906.526 73.0057 878.221C73.2887 852.077 84.0704 829.69 104.708 813.685C119.298 802.363 104.399 770.841 96.6534 757.924C61.1432 698.56 79.979 629.315 129.513 584.85C145.673 570.337 163.094 558.449 181.569 547.204C208.047 531.096 236.301 525.074 267.231 527.287C344.968 532.845 407.008 561.871 471.106 604.149C477.513 608.369 483.946 611.714 491.409 606.851C530.161 581.633 569.994 558.474 612.246 539.253C703.312 497.85 806.06 499.934 896.097 542.804C939.558 563.492 980.755 587.089 1022.11 613.773C1089.42 567.789 1152.23 534.055 1235.12 526.747C1295.9 521.961 1337.22 551.012 1378.98 591.025C1407.29 618.147 1423.17 654.944 1422.09 694.34C1421.47 717.447 1414.06 738.573 1402.25 758.052C1395.43 769.271 1384.41 794.643 1393.78 804.627C1415.32 827.529 1429.65 845.335 1427.1 879.765C1423.94 922.351 1397.15 937.533 1366.45 956.343C1346.97 968.283 1364.78 989.435 1358.78 1012.13C1350.22 1044.55 1327.16 1070.88 1298.42 1087.42C1288.9 1092.9 1282.64 1099.34 1280.64 1110.66C1277.65 1127.46 1273.2 1143.52 1266.28 1159.68C1220.35 1266.98 1117.7 1328.07 1007.49 1356.89ZM968.996 1304.63C1088.75 1279.2 1232.31 1199.82 1231.28 1061.74C1231.08 1035.75 1227.65 1011.41 1220.76 986.064C1188.21 866.101 1111.45 754.733 1011.43 680.805C958.137 641.409 898.541 606.336 834.906 586.908C760.334 564.136 691.424 574.814 620.481 605.049C478.594 665.52 366.428 780.851 311.49 925.182C301.095 952.484 296.489 979.708 290.313 1007.99C275.182 1077.28 295.691 1142.44 340.722 1195.83C375.692 1237.31 421.057 1265.77 472.496 1283.11C541.586 1306.4 612.632 1320.27 685.737 1324.93C780.483 1330.98 875.28 1324.52 968.996 1304.63ZM202.592 962.956C207.301 987.222 181.029 1008.24 230.434 1038.53L236.481 995.919C242.477 953.693 251.895 913.577 269.187 874.464C309.612 783.115 361.899 713.356 437.294 646.221C387.297 616.552 326.595 588.838 268.672 583.718C243.583 582.045 220.553 587.14 199.324 600.16C181.801 610.891 166.387 623.757 152.672 638.99C133.27 660.553 124.984 689.168 139.266 716.032C154.396 744.517 167.031 770.867 166.49 803.778C165.847 843.354 138.339 852.515 129.976 868.854C125.731 877.114 129.976 887.639 137.207 893.094C145.493 899.347 154.113 904.056 163.171 909.511C182.701 921.271 197.986 939.283 202.592 962.956ZM1365.45 886.867C1373.22 880.537 1376.57 868.597 1370.65 860.234C1359.27 844.229 1337.94 836.561 1336.71 802.389C1335.63 772.359 1344.61 744.389 1360.1 719.197C1375.38 694.314 1372.32 664.671 1354.05 642.67C1315.35 596.095 1266.25 573.039 1204.98 587.577C1155.91 599.208 1110.14 619.562 1067.32 648.022L1132.6 712.661C1203.26 782.626 1249.96 872.92 1272.09 969.878L1282.31 1023.68C1291.39 1022.22 1296.95 1016.09 1300.24 1007.94C1310.25 983.13 1290.34 959.74 1315.61 925.208C1331.95 902.872 1348.96 900.299 1365.45 886.867Z" fill="black"/>
<path d="M680.617 439.772C678.069 459.355 640.295 453.256 627.506 448.856C602.906 440.364 579.927 427.344 561.58 408.405C527.871 373.615 511.84 326.268 513.307 278.458C513.487 272.334 512.664 267.316 516.909 263.173C520.177 259.983 526.868 256.818 531.988 258.542C581.034 275.062 613.816 315.59 642.893 356.735C655.965 375.236 666.927 393.969 675.985 414.812C679.279 422.352 681.775 430.946 680.617 439.772ZM631.546 406.655C612.581 365.819 585.46 333.216 551.493 305.914C560.654 354.985 589.01 386.404 631.546 406.655Z" fill="black"/>
<path d="M1031.73 376.528C993.415 425.342 935.389 453.801 873.04 453.853C867.302 453.853 860.329 452.154 856.623 448.706C847.463 440.163 848.158 425.985 856.469 417.339C865.784 397.139 878.727 380.902 894.501 365.257C930.835 329.207 976.432 304.864 1027.2 296.244C1035.28 294.88 1043.75 295.498 1051 297.505C1059.11 299.743 1063.9 307.412 1062.33 315.826C1060.4 326.119 1055.12 335.176 1050.39 344.466C1044.62 355.788 1039.63 366.467 1031.73 376.528ZM1016.11 335.537C979.159 346.01 934.592 377.068 907.985 406.712C946.12 394.978 986.853 363.096 1016.11 335.537Z" fill="black"/>
<path d="M737.664 484.419L726.677 438.358C706.837 355.244 695.438 281.007 736.841 202.292C757.993 162.073 788.742 120.722 836.398 112.513C870.493 106.672 879.088 152.089 879.577 177.229C880.529 226.095 872.32 274.78 855.543 320.66C836.63 372.407 805.185 416.254 762.599 450.452L766.175 479.838C767.127 487.609 760.669 494.609 754.622 495.586C747.211 496.822 739.723 493.065 737.664 484.419ZM785.063 369.345C822.529 315.256 850.139 230.263 840.901 165.238C822.631 205.457 809.946 245.368 800.116 287.646C793.812 314.844 787.584 340.834 785.063 369.345ZM749.604 376.704C760.463 303.522 774.976 239.784 801.222 172.855C747.648 221.694 730.691 308.952 749.604 376.704Z" fill="black"/>
<path d="M687.693 1194.7C673.257 1190.94 661.523 1184.82 650.407 1176.53C621.33 1154.76 618.088 1120.72 624.675 1086.93C635.019 1034 652.877 983.569 678.661 936.35C683.884 926.752 689.648 918.955 696.442 910.593C723.126 877.63 771.013 872.509 804.233 899.193C814.243 907.247 821.808 916.871 828.421 928.296C858.09 979.554 879.577 1034.29 893.189 1092C895.376 1101.24 895.582 1110.09 895.582 1119.43C895.608 1157.44 871.6 1181.94 836.475 1192.41C788.074 1206.82 737.459 1207.59 687.693 1194.7Z" fill="black"/>
<path d="M491.074 1034.73L438.169 1034.85C422.781 1034.91 410.945 1022.58 410.945 1007.17L411.022 872.51C411.022 858.589 422.859 846.315 436.754 846.263L490.251 846.135C503.451 846.109 516.626 857.148 516.626 871.146V1010C516.626 1023.15 504.146 1034.7 491.074 1034.73Z" fill="black"/>
<path d="M1077.95 1034.7L1023.52 1034.47C1009.86 1034.42 997.713 1022.71 997.713 1008.68L997.79 871.224C997.79 857.097 1010.27 847.602 1023.01 845.98L1076.45 846.109C1089.68 846.135 1102.93 857.097 1102.93 871.146V1009.92C1102.96 1023.61 1090.76 1033.13 1077.95 1034.7Z" fill="black"/>
</svg>
