<?xml version="1.0" encoding="utf-8"?>
<!-- Generator: Adobe Illustrator 30.1.0, SVG Export Plug-In . SVG Version: 9.03 Build 0)  -->
<svg version="1.0" id="Layer_1" xmlns="http://www.w3.org/2000/svg" xmlns:xlink="http://www.w3.org/1999/xlink" x="0px" y="0px"
	 viewBox="0 0 651.27 651.27" style="enable-background:new 0 0 651.27 651.27;" xml:space="preserve">
<g>
	<g>
		<path d="M426.15,566.99c-27.04,7.07-53.96,10.87-81.75,11.58c-36.33,0.93-72.34-3.13-107.67-11.32
			c-15.78-3.66-30.62-9.04-44.84-16.33c-29.49-15.11-51.8-40.22-63.28-71.22c-1.98-5.35-5.57-8.77-10.19-11.65
			c-6.63-4.14-12.7-8.49-18.07-14.08c-8.87-9.23-12.56-21.47-9.45-34.01c0.47-1.89-0.12-3.81-1.86-4.9l-11.99-7.52
			c-9.39-5.89-14.18-15.57-14.06-26.57c0.11-10.16,4.3-18.86,12.32-25.08c5.67-4.4-0.12-16.65-3.13-21.67
			c-13.8-23.07-6.48-49.98,12.77-67.26c6.28-5.64,13.05-10.26,20.23-14.63c10.29-6.26,21.27-8.6,33.29-7.74
			c30.21,2.16,54.32,13.44,79.23,29.87c2.49,1.64,4.99,2.94,7.89,1.05c15.06-9.8,30.54-18.8,46.96-26.27
			c35.39-16.09,75.32-15.28,110.31,1.38c16.89,8.04,32.9,17.21,48.97,27.58c26.16-17.87,50.57-30.98,82.78-33.82
			c23.62-1.86,39.68,9.43,55.91,24.98c11,10.54,17.17,24.84,16.75,40.15c-0.24,8.98-3.12,17.19-7.71,24.76
			c-2.65,4.36-6.93,14.22-3.29,18.1c8.37,8.9,13.94,15.82,12.95,29.2c-1.23,16.55-11.64,22.45-23.57,29.76
			c-7.57,4.64-0.65,12.86-2.98,21.68c-3.33,12.6-12.29,22.83-23.46,29.26c-3.7,2.13-6.13,4.63-6.91,9.03
			c-1.16,6.53-2.89,12.77-5.58,19.05C508.87,532.05,468.98,555.79,426.15,566.99z M411.19,546.68
			c46.54-9.88,102.33-40.73,101.93-94.39c-0.08-10.1-1.41-19.56-4.09-29.41c-12.65-46.62-42.48-89.9-81.35-118.63
			c-20.71-15.31-43.87-28.94-68.6-36.49c-28.98-8.85-55.76-4.7-83.33,7.05c-55.14,23.5-98.73,68.32-120.08,124.41
			c-4.04,10.61-5.83,21.19-8.23,32.18c-5.88,26.93,2.09,52.25,19.59,73c13.59,16.12,31.22,27.18,51.21,33.92
			c26.85,9.05,54.46,14.44,82.87,16.25C337.93,556.92,374.77,554.41,411.19,546.68z M113.35,413.9c1.83,9.43-8.38,17.6,10.82,29.37
			l2.35-16.56c2.33-16.41,5.99-32,12.71-47.2c15.71-35.5,36.03-62.61,65.33-88.7c-19.43-11.53-43.02-22.3-65.53-24.29
			c-9.75-0.65-18.7,1.33-26.95,6.39c-6.81,4.17-12.8,9.17-18.13,15.09c-7.54,8.38-10.76,19.5-5.21,29.94
			c5.88,11.07,10.79,21.31,10.58,34.1c-0.25,15.38-10.94,18.94-14.19,25.29c-1.65,3.21,0,7.3,2.81,9.42
			c3.22,2.43,6.57,4.26,10.09,6.38C105.62,397.7,111.56,404.7,113.35,413.9z M565.26,384.33c3.02-2.46,4.32-7.1,2.02-10.35
			c-4.42-6.22-12.71-9.2-13.19-22.48c-0.42-11.67,3.07-22.54,9.09-32.33c5.94-9.67,4.75-21.19-2.35-29.74
			c-15.04-18.1-34.12-27.06-57.93-21.41c-19.07,4.52-36.86,12.43-53.5,23.49l25.37,25.12c27.46,27.19,45.61,62.28,54.21,99.96
			l3.97,20.91c3.53-0.57,5.69-2.95,6.97-6.12c3.89-9.64-3.85-18.73,5.97-32.15C552.24,390.55,558.85,389.55,565.26,384.33z"/>
		<g>
			<path d="M299.12,210.58c-0.99,7.61-15.67,5.24-20.64,3.53c-9.56-3.3-18.49-8.36-25.62-15.72c-13.1-13.52-19.33-31.92-18.76-50.5
				c0.07-2.38-0.25-4.33,1.4-5.94c1.27-1.24,3.87-2.47,5.86-1.8c19.06,6.42,31.8,22.17,43.1,38.16c5.08,7.19,9.34,14.47,12.86,22.57
				C298.6,203.81,299.57,207.15,299.12,210.58z M280.05,197.71c-7.37-15.87-17.91-28.54-31.11-39.15
				C252.5,177.63,263.52,189.84,280.05,197.71z"/>
			<g>
				<path d="M435.57,186c-14.89,18.97-37.44,30.03-61.67,30.05c-2.23,0-4.94-0.66-6.38-2c-3.56-3.32-3.29-8.83-0.06-12.19
					c3.62-7.85,8.65-14.16,14.78-20.24c14.12-14.01,31.84-23.47,51.57-26.82c3.14-0.53,6.43-0.29,9.25,0.49
					c3.15,0.87,5.01,3.85,4.4,7.12c-0.75,4-2.8,7.52-4.64,11.13C440.58,177.94,438.64,182.09,435.57,186z M429.5,170.07
					c-14.36,4.07-31.68,16.14-42.02,27.66C402.3,193.17,418.13,180.78,429.5,170.07z"/>
			</g>
			<g>
				<path d="M321.29,227.93l-4.27-17.9c-7.71-32.3-12.14-61.15,3.95-91.74c8.22-15.63,20.17-31.7,38.69-34.89
					c13.25-2.27,16.59,15.38,16.78,25.15c0.37,18.99-2.82,37.91-9.34,55.74c-7.35,20.11-19.57,37.15-36.12,50.44l1.39,11.42
					c0.37,3.02-2.14,5.74-4.49,6.12C325,232.75,322.09,231.29,321.29,227.93z M339.71,183.21c14.56-21.02,25.29-54.05,21.7-79.32
					c-7.1,15.63-12.03,31.14-15.85,47.57C343.11,162.03,340.69,172.13,339.71,183.21z M325.93,186.07
					c4.22-28.44,9.86-53.21,20.06-79.22C325.17,125.83,318.58,159.74,325.93,186.07z"/>
			</g>
		</g>
		<path d="M301.87,503.96c-5.61-1.46-10.17-3.84-14.49-7.06c-11.3-8.46-12.56-21.69-10-34.82c4.02-20.57,10.96-40.17,20.98-58.52
			c2.03-3.73,4.27-6.76,6.91-10.01c10.37-12.81,28.98-14.8,41.89-4.43c3.89,3.13,6.83,6.87,9.4,11.31
			c11.53,19.92,19.88,41.19,25.17,63.62c0.85,3.59,0.93,7.03,0.93,10.66c0.01,14.77-9.32,24.29-22.97,28.36
			C340.88,508.67,321.21,508.97,301.87,503.96z"/>
		<g>
			<path d="M225.46,441.79l-20.56,0.05c-5.98,0.02-10.58-4.77-10.58-10.76l0.03-52.33c0-5.41,4.6-10.18,10-10.2l20.79-0.05
				c5.13-0.01,10.25,4.28,10.25,9.72l0,53.96C235.39,437.29,230.54,441.78,225.46,441.79z"/>
			<path d="M453.53,441.78l-21.15-0.09c-5.31-0.02-10.03-4.57-10.03-10.02l0.03-53.42c0-5.49,4.85-9.18,9.8-9.81l20.77,0.05
				c5.14,0.01,10.29,4.27,10.29,9.73l0,53.93C463.25,437.47,458.51,441.17,453.53,441.78z"/>
		</g>
	</g>
</g>
</svg>
