<svg width="1500" height="1500" viewBox="0 0 1500 1500" fill="none" xmlns="http://www.w3.org/2000/svg">
<path d="M1007.5 1356.9C937.919 1375.09 868.647 1384.87 797.137 1386.7C703.652 1389.09 610.99 1378.64 520.078 1357.57C479.473 1348.15 441.286 1334.31 404.695 1315.55C328.81 1276.67 271.401 1212.05 241.861 1132.28C236.766 1118.52 227.528 1109.72 215.64 1102.3C198.579 1091.65 182.96 1080.46 169.141 1066.07C146.317 1042.32 136.822 1010.83 144.824 978.558C146.034 973.695 144.516 968.754 140.038 965.949L109.185 946.599C85.0226 931.442 72.6969 906.533 73.0056 878.228C73.2887 852.084 84.0705 829.697 104.708 813.691C119.298 802.369 104.399 770.847 96.6536 757.93C61.1431 698.565 79.9791 629.32 129.514 584.854C145.674 570.341 163.094 558.453 181.57 547.208C208.049 531.1 236.303 525.078 267.233 527.291C344.97 532.849 407.01 561.875 471.11 604.154C477.517 608.374 483.95 611.719 491.412 606.855C530.165 581.638 569.999 558.479 612.251 539.257C703.318 497.854 806.067 499.938 896.104 542.808C939.566 563.497 980.763 587.093 1022.11 613.777C1089.43 567.794 1152.24 534.059 1235.13 526.751C1295.91 521.965 1337.23 551.016 1379 591.03C1407.3 618.152 1423.18 654.949 1422.1 694.345C1421.48 717.453 1414.07 738.579 1402.26 758.058C1395.44 769.277 1384.43 794.65 1393.79 804.634C1415.33 827.535 1429.66 845.342 1427.11 879.772C1423.95 922.359 1397.16 937.541 1366.46 956.351C1346.98 968.291 1364.79 989.443 1358.8 1012.14C1350.23 1044.56 1327.17 1070.89 1298.43 1087.43C1288.91 1092.91 1282.65 1099.35 1280.65 1110.67C1277.66 1127.47 1273.21 1143.53 1266.29 1159.69C1220.36 1266.99 1117.71 1328.08 1007.5 1356.9ZM969.003 1304.64C1088.76 1279.21 1232.32 1199.83 1231.29 1061.75C1231.09 1035.76 1227.66 1011.42 1220.77 986.072C1188.22 866.108 1111.46 754.739 1011.44 680.81C958.144 641.414 898.548 606.341 834.912 586.913C760.34 564.14 691.429 574.819 620.485 605.054C478.598 665.525 366.431 780.857 311.492 925.189C301.096 952.491 296.49 979.716 290.315 1008C275.184 1077.29 295.693 1142.45 340.724 1195.84C375.694 1237.32 421.06 1265.78 472.499 1283.13C541.59 1306.41 612.637 1320.28 685.742 1324.94C780.489 1330.99 875.286 1324.53 969.003 1304.64ZM202.593 962.964C207.302 987.23 181.03 1008.25 230.436 1038.54L236.483 995.927C242.478 953.701 251.896 913.584 269.188 874.471C309.614 783.122 361.902 713.361 437.297 646.226C387.3 616.556 326.597 588.843 268.674 583.722C243.585 582.049 220.554 587.145 199.325 600.165C181.802 610.895 166.388 623.762 152.673 638.995C133.271 660.559 124.985 689.173 139.266 716.037C154.397 744.523 167.031 770.873 166.491 803.785C165.848 843.361 138.34 852.521 129.977 868.861C125.731 877.121 129.977 887.646 137.208 893.101C145.493 899.354 154.114 904.063 163.172 909.518C182.702 921.278 197.987 939.291 202.593 962.964ZM1365.46 886.874C1373.23 880.544 1376.58 868.604 1370.66 860.241C1359.28 844.236 1337.95 836.567 1336.72 802.395C1335.64 772.365 1344.62 744.394 1360.11 719.203C1375.39 694.319 1372.33 664.676 1354.06 642.675C1315.36 596.099 1266.26 573.043 1204.99 587.582C1155.92 599.213 1110.14 619.567 1067.33 648.027L1132.61 712.667C1203.27 782.633 1249.97 872.927 1272.1 969.886L1282.32 1023.69C1291.4 1022.23 1296.96 1016.1 1300.25 1007.94C1310.26 983.138 1290.35 959.748 1315.62 925.215C1331.96 902.879 1348.97 900.306 1365.46 886.874Z" fill="white"/>
<path d="M680.622 439.776C678.074 459.358 640.299 453.26 627.51 448.859C602.91 440.368 579.931 427.347 561.584 408.408C527.875 373.618 511.844 326.271 513.311 278.46C513.491 272.336 512.667 267.318 516.913 263.175C520.181 259.985 526.871 256.819 531.992 258.544C581.038 275.064 613.821 315.592 642.898 356.738C655.97 375.239 666.932 393.973 675.99 414.816C679.284 422.355 681.78 430.95 680.622 439.776ZM631.55 406.659C612.586 365.821 585.464 333.219 551.497 305.917C560.658 354.988 589.015 386.407 631.55 406.659Z" fill="white"/>
<path d="M1031.74 376.531C993.423 425.345 935.397 453.805 873.047 453.856C867.309 453.856 860.336 452.158 856.63 448.71C847.47 440.166 848.164 425.988 856.476 417.342C865.791 397.142 878.734 380.905 894.508 365.26C930.842 329.209 976.44 304.866 1027.21 296.246C1035.29 294.882 1043.76 295.5 1051.01 297.507C1059.12 299.745 1063.9 307.414 1062.33 315.828C1060.4 326.121 1055.13 335.179 1050.39 344.468C1044.63 355.79 1039.64 366.469 1031.74 376.531ZM1016.12 335.539C979.167 346.012 934.599 377.071 907.992 406.714C946.127 394.981 986.861 363.098 1016.12 335.539Z" fill="white"/>
<path d="M737.67 484.422L726.682 438.361C706.843 355.246 695.443 281.008 736.847 202.293C757.998 162.074 788.749 120.722 836.405 112.513C870.5 106.672 879.095 152.09 879.583 177.23C880.536 226.096 872.327 274.781 855.55 320.662C836.636 372.409 805.191 416.257 762.605 450.455L766.181 479.841C767.133 487.613 760.675 494.612 754.628 495.59C747.217 496.825 739.729 493.068 737.67 484.422ZM785.069 369.347C822.535 315.258 850.146 230.264 840.908 165.239C822.638 205.458 809.952 245.369 800.122 287.647C793.818 314.846 787.591 340.836 785.069 369.347ZM749.61 376.707C760.469 303.524 774.982 239.785 801.229 172.855C747.654 221.695 730.697 308.953 749.61 376.707Z" fill="white"/>
<path d="M687.698 1194.71C673.262 1190.95 661.528 1184.83 650.412 1176.54C621.334 1154.77 618.092 1120.73 624.68 1086.94C635.024 1034.01 652.882 983.577 678.666 936.359C683.89 926.76 689.654 918.964 696.447 910.601C723.131 877.638 771.019 872.517 804.239 899.201C814.249 907.255 821.815 916.879 828.428 928.304C858.097 979.563 879.584 1034.3 893.196 1092.01C895.383 1101.25 895.589 1110.1 895.589 1119.44C895.615 1157.45 871.607 1181.95 836.482 1192.42C788.08 1206.83 737.464 1207.6 687.698 1194.71Z" fill="white"/>
<path d="M491.078 1034.73L438.172 1034.86C422.785 1034.91 410.948 1022.59 410.948 1007.18L411.025 872.518C411.025 858.597 422.862 846.323 436.757 846.271L490.255 846.143C503.455 846.117 516.63 857.156 516.63 871.154V1010.01C516.63 1023.15 504.15 1034.71 491.078 1034.73Z" fill="white"/>
<path d="M1077.95 1034.71L1023.53 1034.48C1009.87 1034.43 997.721 1022.72 997.721 1008.69L997.798 871.232C997.798 857.105 1010.28 847.609 1023.02 845.988L1076.46 846.117C1089.69 846.143 1102.94 857.105 1102.94 871.154V1009.93C1102.97 1023.62 1090.77 1033.14 1077.95 1034.71Z" fill="white"/>
</svg>
