<svg width="1500" height="1500" viewBox="0 0 1500 1500" fill="none" xmlns="http://www.w3.org/2000/svg">
<path d="M1112.31 1304.83C1086.81 1318.43 1061.35 1328.63 1034.34 1337.56C898.41 1382.49 759.69 1392.09 617.85 1374.35C550.555 1365.94 481.88 1349.18 421.09 1319.11C335.75 1276.88 273.02 1210.3 244.505 1118.64C242.145 1111.05 238.335 1103.46 231.975 1099.1C219.59 1090.61 207.695 1083.15 195.895 1074.12C163.825 1049.56 148.025 1010.57 153.55 970.621C154.635 962.776 151.12 956.116 144.83 952.051C135.425 945.971 126.815 939.881 118.16 932.911C93.1449 912.771 81.9899 881.911 88.2749 850.111C91.9149 831.686 100.245 815.286 110.93 799.846C116.555 791.716 117.97 782.471 113.66 773.286L88.8499 720.396C80.2549 702.076 76.7149 683.231 77.1999 663.001C77.6649 643.656 79.5449 624.986 87.2499 607.041C100.13 577.041 120.725 551.406 146.835 531.891C201.71 490.881 277.635 503.231 338.54 522.546C381.82 536.271 422.44 554.826 461.905 576.976C465.925 579.236 469.955 579.241 473.795 576.761C531.46 539.486 593.2 510.786 660.515 495.311C721.55 481.281 783.905 480.701 845.335 493.706C907.21 506.801 966.225 530.271 1020.28 562.646C1026.6 566.426 1032.07 570.721 1038.14 573.696C1045.5 577.311 1050.6 575.381 1056.92 571.686C1110.42 540.431 1156.99 518.716 1218.01 505.191C1259.61 495.971 1301.39 496.931 1339.13 518.086C1399.93 552.171 1439.55 624.181 1421.15 693.081C1415.4 714.596 1401.52 731.866 1395.63 756.391C1390.38 778.231 1404.86 787.106 1413.44 801.491C1424.99 820.881 1428.5 844.071 1424.2 866.101C1417.55 900.166 1395.08 918.656 1366.76 934.821C1362.49 937.261 1360.3 940.976 1360.71 946.011L1362.09 963.021C1363.21 976.701 1361.75 990.601 1356.31 1003.16L1349.94 1017.88C1333.83 1055.07 1289.39 1071.53 1286.22 1083.05L1275.4 1122.42C1268.52 1147.44 1256.5 1169.57 1241.54 1190.67C1207.72 1238.33 1164.44 1277.03 1112.3 1304.84L1112.31 1304.83ZM865.81 1313.35C946.885 1305.09 1030.2 1283.08 1100.25 1242.24C1129.41 1225.23 1155.02 1204.48 1176.99 1179.04C1199.56 1152.9 1215.72 1123.23 1224.84 1089.88C1239.57 1036.01 1236.52 977.056 1222.83 922.906C1209.12 868.706 1187.25 816.456 1156.31 769.681C1074.84 646.531 936.305 559.156 788.08 547.116C731.69 542.536 675.955 549.931 622.845 568.956C536.735 599.801 461.095 654.611 404.24 726.206C376.005 761.761 352.815 800.681 334.11 842.101C307.705 900.576 292.925 962.796 290.55 1026.94C289.35 1059.28 294.165 1090.04 306.265 1120.03C325.62 1168 358.775 1209.32 401.555 1238.42C445.57 1268.36 497.76 1284.03 549.105 1296.08C598.82 1307.74 648.48 1315.03 699.635 1317.45C755.115 1320.07 809.9 1319.04 865.81 1313.35V1313.35ZM1308.89 947.411C1309.09 916.696 1324.13 890.391 1349.49 874.266C1356.21 869.991 1362.76 865.976 1368.5 860.641C1378 851.816 1379.51 838.351 1371.41 828.316L1357.72 811.346C1349.21 800.791 1347.07 786.756 1346.64 772.991C1345.91 749.296 1351.88 726.501 1361.85 705.156C1365.96 696.351 1369.74 688.176 1373.13 679.156C1389.85 634.646 1362.54 594.771 1326.09 571.036C1297.26 552.256 1266.5 550.721 1232.86 557.086C1191.92 564.831 1153.34 578.981 1116.45 598.041C1110.99 600.861 1106.13 603.741 1102.08 607.906C1098.56 611.536 1098.65 616.611 1101.83 620.256C1119.15 640.171 1131.94 649.331 1148.32 666.911C1205.03 727.751 1246.43 801.576 1267.85 882.181C1276.26 913.801 1279.85 945.646 1284.07 977.891L1287.09 1000.96C1309.71 988.746 1308.74 970.676 1308.89 947.421V947.411ZM207.42 990.406C209.925 1004.27 221.49 1022.26 235.04 1027.15C237.38 1021 237.99 1015.41 238.105 1008.99C238.27 999.721 238.995 991.321 239.93 981.886C244.205 938.746 252.45 896.941 265.56 855.591C280.455 808.601 301.75 765.051 329.565 724.361C351.865 691.736 376.425 661.361 403.325 632.641C406.505 629.246 422.63 616.351 412.37 611.491C337.41 575.971 224.28 523.931 155.875 597.846C146.135 608.371 138.35 619.566 132.835 632.806C120.525 662.356 129.365 686.886 142.915 713.916C156.465 740.946 169.145 763.021 167.345 794.911C165.79 822.461 150.375 830.256 139.955 852.936C131.875 870.531 144.965 881.746 158.96 888.946C175.66 897.541 189.64 909.666 199.475 925.496C216.44 952.791 203.76 970.156 207.415 990.401L207.42 990.406Z" fill="black"/>
<path d="M864.82 1166.84C844.015 1185.55 815.635 1193.41 787.945 1195.82C761.82 1198.1 736.23 1197.7 710.26 1194.61C679.735 1190.99 648.65 1180.69 628.635 1156.52C620.635 1146.86 615.805 1135.96 614.585 1123.37C613.365 1110.78 613.975 1098.79 616.25 1085.99C624.82 1037.81 639.51 991.526 660.5 947.396C673.015 921.081 691.48 895.581 718.25 883.246C745.48 870.696 776.11 874.821 798.855 894.156C808.025 901.956 815.655 910.661 822.265 920.851C829.12 931.411 835.16 941.981 840.115 953.691L864.57 1011.49C875.87 1038.19 890.45 1089.5 888.465 1118.38C887.16 1137.35 878.885 1154.19 864.815 1166.84H864.82Z" fill="black"/>
<path d="M787.795 335.521C787.805 358.561 770.295 375.911 748.42 376.226C727.105 376.531 708.255 359.386 708.265 336.966L708.32 155.051C708.325 132.756 727.39 116.006 748.44 116.281C769.895 116.561 787.725 133.756 787.735 156.051L787.795 335.521Z" fill="black"/>
<path d="M914.03 410.416C898.125 426.341 873.685 426.261 858.03 411.416C842.695 396.876 840.91 371.171 856.61 355.456L954.97 257.026C970.48 241.506 995.365 242.291 1010.46 257.071C1025.8 272.086 1026.85 297.466 1011.11 313.226L914.03 410.416Z" fill="black"/>
<path d="M639.045 354.315C654.845 370.105 654.59 394.36 640.13 409.86C625.67 425.36 599.875 427.41 584.185 411.715L484.815 312.325C469.425 296.935 471.37 271.785 485.895 257.36C501.24 242.115 526.235 241.56 541.89 257.205L639.045 354.315Z" fill="black"/>
<path d="M483.46 1028.51L430.895 1028.63C417.03 1028.66 404.075 1017.68 404.055 1003.03L403.885 867.05C403.865 852.08 414.83 839.435 430.125 839.42L483.01 839.375C497.715 839.36 509.565 851.32 509.565 866.135V1001.87C509.565 1016.21 498.15 1028.48 483.45 1028.51H483.46Z" fill="black"/>
<path d="M1073.61 1028.08L1016.97 1027.9C1002.59 1027.86 991.7 1015.14 991.7 1000.96V866.079C991.7 850.634 1003.71 838.809 1018.99 838.804L1070.12 838.789C1083.81 838.789 1097.19 849.349 1097.19 864.024L1097.2 1002.96C1097.2 1016.23 1086.16 1026.08 1073.61 1028.08H1073.61Z" fill="black"/>
</svg>
