<?xml version="1.0" encoding="UTF-8" standalone="no"?>
<!DOCTYPE svg PUBLIC "-//W3C//DTD SVG 1.1//EN"
 "http://www.w3.org/Graphics/SVG/1.1/DTD/svg11.dtd">
<!-- Generated by graphviz version 12.2.1 (20241206.2353)
 -->
<!-- Title: g Pages: 1 -->
<svg width="296pt" height="390pt"
 viewBox="0.00 0.00 295.65 389.80" xmlns="http://www.w3.org/2000/svg" xmlns:xlink="http://www.w3.org/1999/xlink">
<g id="graph0" class="graph" transform="scale(1 1) rotate(0) translate(14.4 375.4)">
<title>g</title>
<!-- before -->
<g id="node1" class="node">
<title>before</title>
<path fill="#f6f8fa" stroke="#57606a" d="M221.85,-361C221.85,-361 45,-361 45,-361 39,-361 33,-355 33,-349 33,-349 33,-337 33,-337 33,-331 39,-325 45,-325 45,-325 221.85,-325 221.85,-325 227.85,-325 233.85,-331 233.85,-337 233.85,-337 233.85,-349 233.85,-349 233.85,-355 227.85,-361 221.85,-361"/>
<text text-anchor="middle" x="133.43" y="-338.73" font-family="Arial" font-size="12.00" fill="#1f2328">snapshot target accessibility roots</text>
</g>
<!-- action -->
<g id="node2" class="node">
<title>action</title>
<path fill="#f6f8fa" stroke="#57606a" d="M170.1,-296C170.1,-296 96.75,-296 96.75,-296 90.75,-296 84.75,-290 84.75,-284 84.75,-284 84.75,-272 84.75,-272 84.75,-266 90.75,-260 96.75,-260 96.75,-260 170.1,-260 170.1,-260 176.1,-260 182.1,-266 182.1,-272 182.1,-272 182.1,-284 182.1,-284 182.1,-290 176.1,-296 170.1,-296"/>
<text text-anchor="middle" x="133.43" y="-273.73" font-family="Arial" font-size="12.00" fill="#1f2328">perform action</text>
</g>
<!-- before&#45;&gt;action -->
<g id="edge1" class="edge">
<title>before&#45;&gt;action</title>
<path fill="none" stroke="#57606a" d="M133.43,-324.78C133.43,-318.53 133.43,-311.33 133.43,-304.52"/>
<polygon fill="#57606a" stroke="#57606a" points="135.88,-304.71 133.43,-297.71 130.98,-304.71 135.88,-304.71"/>
</g>
<!-- signal -->
<g id="node3" class="node">
<title>signal</title>
<path fill="#f6f8fa" stroke="#57606a" d="M254.85,-231C254.85,-231 12,-231 12,-231 6,-231 0,-225 0,-219 0,-219 0,-207 0,-207 0,-201 6,-195 12,-195 12,-195 254.85,-195 254.85,-195 260.85,-195 266.85,-201 266.85,-207 266.85,-207 266.85,-219 266.85,-219 266.85,-225 260.85,-231 254.85,-231"/>
<text text-anchor="middle" x="133.43" y="-208.72" font-family="Arial" font-size="12.00" fill="#1f2328">event or native&#45;window signal wakes observer</text>
</g>
<!-- action&#45;&gt;signal -->
<g id="edge2" class="edge">
<title>action&#45;&gt;signal</title>
<path fill="none" stroke="#57606a" d="M133.43,-259.78C133.43,-253.53 133.43,-246.33 133.43,-239.52"/>
<polygon fill="#57606a" stroke="#57606a" points="135.88,-239.71 133.43,-232.71 130.98,-239.71 135.88,-239.71"/>
</g>
<!-- after -->
<g id="node4" class="node">
<title>after</title>
<path fill="#f6f8fa" stroke="#57606a" d="M238.35,-166C238.35,-166 28.5,-166 28.5,-166 22.5,-166 16.5,-160 16.5,-154 16.5,-154 16.5,-142 16.5,-142 16.5,-136 22.5,-130 28.5,-130 28.5,-130 238.35,-130 238.35,-130 244.35,-130 250.35,-136 250.35,-142 250.35,-142 250.35,-154 250.35,-154 250.35,-160 244.35,-166 238.35,-166"/>
<text text-anchor="middle" x="133.43" y="-143.72" font-family="Arial" font-size="12.00" fill="#1f2328">snapshot target accessibility roots again</text>
</g>
<!-- signal&#45;&gt;after -->
<g id="edge3" class="edge">
<title>signal&#45;&gt;after</title>
<path fill="none" stroke="#57606a" d="M133.43,-194.78C133.43,-188.53 133.43,-181.33 133.43,-174.52"/>
<polygon fill="#57606a" stroke="#57606a" points="135.88,-174.71 133.43,-167.71 130.98,-174.71 135.88,-174.71"/>
</g>
<!-- delta -->
<g id="node5" class="node">
<title>delta</title>
<path fill="#f6f8fa" stroke="#57606a" d="M246.6,-101C246.6,-101 20.25,-101 20.25,-101 14.25,-101 8.25,-95 8.25,-89 8.25,-89 8.25,-77 8.25,-77 8.25,-71 14.25,-65 20.25,-65 20.25,-65 246.6,-65 246.6,-65 252.6,-65 258.6,-71 258.6,-77 258.6,-77 258.6,-89 258.6,-89 258.6,-95 252.6,-101 246.6,-101"/>
<text text-anchor="middle" x="133.43" y="-78.72" font-family="Arial" font-size="12.00" fill="#1f2328">derive appeared, closed, and focused roots</text>
</g>
<!-- after&#45;&gt;delta -->
<g id="edge4" class="edge">
<title>after&#45;&gt;delta</title>
<path fill="none" stroke="#57606a" d="M133.43,-129.78C133.43,-123.53 133.43,-116.33 133.43,-109.52"/>
<polygon fill="#57606a" stroke="#57606a" points="135.88,-109.71 133.43,-102.71 130.98,-109.71 135.88,-109.71"/>
</g>
<!-- resolver -->
<g id="node6" class="node">
<title>resolver</title>
<path fill="#f6f8fa" stroke="#57606a" d="M233.1,-36C233.1,-36 33.75,-36 33.75,-36 27.75,-36 21.75,-30 21.75,-24 21.75,-24 21.75,-12 21.75,-12 21.75,-6 27.75,0 33.75,0 33.75,0 233.1,0 233.1,0 239.1,0 245.1,-6 245.1,-12 245.1,-12 245.1,-24 245.1,-24 245.1,-30 239.1,-36 233.1,-36"/>
<text text-anchor="middle" x="133.43" y="-13.72" font-family="Arial" font-size="12.00" fill="#1f2328">refresh and validate visible modal root</text>
</g>
<!-- delta&#45;&gt;resolver -->
<g id="edge5" class="edge">
<title>delta&#45;&gt;resolver</title>
<path fill="none" stroke="#57606a" d="M133.43,-64.78C133.43,-58.53 133.43,-51.33 133.43,-44.52"/>
<polygon fill="#57606a" stroke="#57606a" points="135.88,-44.71 133.43,-37.71 130.98,-44.71 135.88,-44.71"/>
</g>
</g>
</svg>
