<?xml version="1.0" encoding="UTF-8" standalone="no"?>
<!DOCTYPE svg PUBLIC "-//W3C//DTD SVG 1.1//EN"
 "http://www.w3.org/Graphics/SVG/1.1/DTD/svg11.dtd">
<!-- Generated by graphviz version 12.2.1 (20241206.2353)
 -->
<!-- Title: g Pages: 1 -->
<svg width="307pt" height="499pt"
 viewBox="0.00 0.00 306.52 499.10" xmlns="http://www.w3.org/2000/svg" xmlns:xlink="http://www.w3.org/1999/xlink">
<g id="graph0" class="graph" transform="scale(1 1) rotate(0) translate(14.4 484.7)">
<title>g</title>
<!-- action -->
<g id="node1" class="node">
<title>action</title>
<path fill="#f6f8fa" stroke="#57606a" d="M178.73,-470.3C178.73,-470.3 83.63,-470.3 83.63,-470.3 77.63,-470.3 71.63,-464.3 71.63,-458.3 71.63,-458.3 71.63,-446.3 71.63,-446.3 71.63,-440.3 77.63,-434.3 83.63,-434.3 83.63,-434.3 178.73,-434.3 178.73,-434.3 184.73,-434.3 190.73,-440.3 190.73,-446.3 190.73,-446.3 190.73,-458.3 190.73,-458.3 190.73,-464.3 184.73,-470.3 178.73,-470.3"/>
<text text-anchor="middle" x="131.18" y="-448.03" font-family="Arial" font-size="12.00" fill="#1f2328">macOS action tool</text>
</g>
<!-- global -->
<g id="node2" class="node">
<title>global</title>
<path fill="#f6f8fa" stroke="#57606a" d="M212.1,-403.3C212.1,-403.3 50.25,-403.3 50.25,-403.3 44.25,-403.3 38.25,-397.3 38.25,-391.3 38.25,-391.3 38.25,-379.3 38.25,-379.3 38.25,-373.3 44.25,-367.3 50.25,-367.3 50.25,-367.3 212.1,-367.3 212.1,-367.3 218.1,-367.3 224.1,-373.3 224.1,-379.3 224.1,-379.3 224.1,-391.3 224.1,-391.3 224.1,-397.3 218.1,-403.3 212.1,-403.3"/>
<text text-anchor="middle" x="131.18" y="-381.03" font-family="Arial" font-size="12.00" fill="#1f2328">diff all visible desktop windows</text>
</g>
<!-- action&#45;&gt;global -->
<g id="edge1" class="edge">
<title>action&#45;&gt;global</title>
<path fill="none" stroke="#57606a" d="M131.18,-433.88C131.18,-427.18 131.18,-419.38 131.18,-412.05"/>
<polygon fill="#57606a" stroke="#57606a" points="133.63,-412.28 131.18,-405.28 128.73,-412.28 133.63,-412.28"/>
</g>
<!-- json -->
<g id="node3" class="node">
<title>json</title>
<path fill="#f6f8fa" stroke="#57606a" d="M179.48,-336.3C179.48,-336.3 82.88,-336.3 82.88,-336.3 76.88,-336.3 70.88,-330.3 70.88,-324.3 70.88,-324.3 70.88,-312.3 70.88,-312.3 70.88,-306.3 76.88,-300.3 82.88,-300.3 82.88,-300.3 179.48,-300.3 179.48,-300.3 185.48,-300.3 191.48,-306.3 191.48,-312.3 191.48,-312.3 191.48,-324.3 191.48,-324.3 191.48,-330.3 185.48,-336.3 179.48,-336.3"/>
<text text-anchor="middle" x="131.18" y="-314.03" font-family="Arial" font-size="12.00" fill="#1f2328">write legacy JSON</text>
</g>
<!-- global&#45;&gt;json -->
<g id="edge2" class="edge">
<title>global&#45;&gt;json</title>
<path fill="none" stroke="#57606a" d="M131.18,-366.88C131.18,-360.18 131.18,-352.38 131.18,-345.05"/>
<polygon fill="#57606a" stroke="#57606a" points="133.63,-345.28 131.18,-338.28 128.73,-345.28 133.63,-345.28"/>
</g>
<!-- parse -->
<g id="node4" class="node">
<title>parse</title>
<path fill="#f6f8fa" stroke="#57606a" d="M200.85,-269.3C200.85,-269.3 61.5,-269.3 61.5,-269.3 55.5,-269.3 49.5,-263.3 49.5,-257.3 49.5,-257.3 49.5,-245.3 49.5,-245.3 49.5,-239.3 55.5,-233.3 61.5,-233.3 61.5,-233.3 200.85,-233.3 200.85,-233.3 206.85,-233.3 212.85,-239.3 212.85,-245.3 212.85,-245.3 212.85,-257.3 212.85,-257.3 212.85,-263.3 206.85,-269.3 200.85,-269.3"/>
<text text-anchor="middle" x="131.18" y="-247.03" font-family="Arial" font-size="12.00" fill="#1f2328">parse shared action record</text>
</g>
<!-- json&#45;&gt;parse -->
<g id="edge3" class="edge">
<title>json&#45;&gt;parse</title>
<path fill="none" stroke="#57606a" d="M131.18,-299.88C131.18,-293.18 131.18,-285.38 131.18,-278.05"/>
<polygon fill="#57606a" stroke="#57606a" points="133.63,-278.28 131.18,-271.28 128.73,-278.28 133.63,-278.28"/>
</g>
<!-- confirm -->
<g id="node5" class="node">
<title>confirm</title>
<path fill="#f6f8fa" stroke="#57606a" d="M201.6,-202.3C201.6,-202.3 60.75,-202.3 60.75,-202.3 54.75,-202.3 48.75,-196.3 48.75,-190.3 48.75,-190.3 48.75,-178.3 48.75,-178.3 48.75,-172.3 54.75,-166.3 60.75,-166.3 60.75,-166.3 201.6,-166.3 201.6,-166.3 207.6,-166.3 213.6,-172.3 213.6,-178.3 213.6,-178.3 213.6,-190.3 213.6,-190.3 213.6,-196.3 207.6,-202.3 201.6,-202.3"/>
<text text-anchor="middle" x="131.18" y="-180.03" font-family="Arial" font-size="12.00" fill="#1f2328">promote effect to confirmed</text>
</g>
<!-- parse&#45;&gt;confirm -->
<g id="edge4" class="edge">
<title>parse&#45;&gt;confirm</title>
<path fill="none" stroke="#57606a" d="M131.18,-232.88C131.18,-226.18 131.18,-218.38 131.18,-211.05"/>
<polygon fill="#57606a" stroke="#57606a" points="133.63,-211.28 131.18,-204.28 128.73,-211.28 133.63,-211.28"/>
</g>
<!-- count -->
<g id="node6" class="node">
<title>count</title>
<path fill="#f6f8fa" stroke="#57606a" d="M119.5,-132.53C119.5,-132.53 22.25,-109.42 22.25,-109.42 16.41,-108.04 16.41,-105.26 22.25,-103.88 22.25,-103.88 119.5,-80.77 119.5,-80.77 125.34,-79.39 137.01,-79.39 142.85,-80.77 142.85,-80.77 240.1,-103.88 240.1,-103.88 245.94,-105.26 245.94,-108.04 240.1,-109.42 240.1,-109.42 142.85,-132.53 142.85,-132.53 137.01,-133.91 125.34,-133.91 119.5,-132.53"/>
<text text-anchor="middle" x="131.18" y="-102.38" font-family="Arial" font-size="12.00" fill="#1f2328">new window count</text>
</g>
<!-- confirm&#45;&gt;count -->
<g id="edge5" class="edge">
<title>confirm&#45;&gt;count</title>
<path fill="none" stroke="#57606a" d="M131.18,-166.13C131.18,-159.54 131.18,-151.74 131.18,-144.01"/>
<polygon fill="#57606a" stroke="#57606a" points="133.63,-144.24 131.18,-137.24 128.73,-144.24 133.63,-144.24"/>
</g>
<!-- exact -->
<g id="node7" class="node">
<title>exact</title>
<path fill="#f6f8fa" stroke="#57606a" d="M100.35,-36C100.35,-36 12,-36 12,-36 6,-36 0,-30 0,-24 0,-24 0,-12 0,-12 0,-6 6,0 12,0 12,0 100.35,0 100.35,0 106.35,0 112.35,-6 112.35,-12 112.35,-12 112.35,-24 112.35,-24 112.35,-30 106.35,-36 100.35,-36"/>
<text text-anchor="middle" x="56.18" y="-13.72" font-family="Arial" font-size="12.00" fill="#1f2328">emit exact rebind</text>
</g>
<!-- count&#45;&gt;exact -->
<g id="edge6" class="edge">
<title>count&#45;&gt;exact</title>
<path fill="none" stroke="#57606a" d="M111.08,-82.43C100.36,-70.05 87.21,-54.86 76.47,-42.44"/>
<polygon fill="#57606a" stroke="#57606a" points="78.52,-41.07 72.08,-37.38 74.81,-44.27 78.52,-41.07"/>
<text text-anchor="middle" x="101.55" y="-53.5" font-family="Arial" font-size="10.00" fill="#1f2328">one</text>
</g>
<!-- ambiguous -->
<g id="node8" class="node">
<title>ambiguous</title>
<path fill="#f6f8fa" stroke="#57606a" d="M265.73,-36C265.73,-36 146.62,-36 146.62,-36 140.62,-36 134.62,-30 134.62,-24 134.62,-24 134.62,-12 134.62,-12 134.62,-6 140.62,0 146.62,0 146.62,0 265.73,0 265.73,0 271.73,0 277.73,-6 277.73,-12 277.73,-12 277.73,-24 277.73,-24 277.73,-30 271.73,-36 265.73,-36"/>
<text text-anchor="middle" x="206.18" y="-13.72" font-family="Arial" font-size="12.00" fill="#1f2328">emit ambiguous rebind</text>
</g>
<!-- count&#45;&gt;ambiguous -->
<g id="edge7" class="edge">
<title>count&#45;&gt;ambiguous</title>
<path fill="none" stroke="#57606a" d="M151.27,-82.43C161.99,-70.05 175.14,-54.86 185.88,-42.44"/>
<polygon fill="#57606a" stroke="#57606a" points="187.54,-44.27 190.27,-37.38 183.83,-41.07 187.54,-44.27"/>
<text text-anchor="middle" x="189.6" y="-53.5" font-family="Arial" font-size="10.00" fill="#1f2328">many</text>
</g>
</g>
</svg>
